<?xml version="1.0" encoding="UTF-8"?>
<!DOCTYPE svg PUBLIC "-//W3C//DTD SVG 1.0//EN" "http://www.w3.org/TR/2001/REC-SVG-20010904/DTD/svg10.dtd">
<!-- Creator: CorelDRAW -->
<svg xmlns="http://www.w3.org/2000/svg" xml:space="preserve" width="12.835mm" height="16.4042mm" version="1.0" style="shape-rendering:geometricPrecision; text-rendering:geometricPrecision; image-rendering:optimizeQuality; fill-rule:evenodd; clip-rule:evenodd"
viewBox="0 0 153.73 196.48"
 xmlns:xlink="http://www.w3.org/1999/xlink"
 xmlns:xodm="http://www.corel.com/coreldraw/odm/2003">
 <defs>
  <style type="text/css">
   <![CDATA[
    .fil0 {fill:white}
   ]]>
  </style>
 </defs>
 <g id="Camada_x0020_1">
  <metadata id="CorelCorpID_0Corel-Layer"/>
  <path class="fil0" d="M6.34 110.12c0,-2.04 2.1,-4.75 4.36,-4.75l132.31 0c5.24,0 6.41,9.51 -1.19,9.51l-129.93 0c-3.31,0 -5.55,-2.31 -5.55,-4.75zm52.29 -73.68c-1.57,-0.13 -0.95,-0.4 -1.98,-0.4 -14.7,0 -26.14,11.02 -26.14,25.75 -6.78,0 -13.01,3.3 -17.33,7.62 -2.46,2.46 -3.65,3.94 -5.18,7.1 -5.03,10.44 -0.86,16.89 -0.86,22.9 -4.78,2.53 -7.13,5.28 -7.13,11.09 0,3.97 1.83,6.31 4.07,8.21 2.78,2.36 4.83,2.49 9.79,2.49 0.13,1.55 0.57,3.41 0.85,5.09l10.02 58.91c1.94,5.8 7.38,11.27 14.09,11.27l14.26 0c0,-3.6 -0.29,-6 -0.38,-9.52 -0.05,-2 -0.4,-2.19 -0.42,-4.33l-0.4 -9.5c-0.14,-1.72 -0.39,-2.49 -0.37,-4.78l-1.21 -18.6c-0.07,-9.81 -1.57,-18.8 -1.57,-28.54l5.94 0c0,1.99 0.39,2.18 0.41,4.34l3.17 51.9c0.18,6.48 0.66,12.88 1.18,19.03l34.86 0c0.5,-5.99 1.12,-12.34 1.17,-18.63 0.03,-3.42 1.21,-14.79 1.2,-19.01l0.79 -13.87c0.12,-4.56 1.21,-14.26 1.19,-19.01 -0.01,-2.31 0.41,-2.74 0.41,-4.74l5.94 0c0,4.99 -0.81,11.33 -0.8,13.85 0.02,4.79 -0.92,13.77 -1.18,18.63l-1.08 18.73c-0.23,1.68 0.02,3.33 -0.17,4.98l-1.13 19.07 14.26 0c6.5,0 12.53,-5.73 14.02,-10.94 0.89,-3.12 1.33,-7.06 1.89,-10.4l9.05 -53.93c4.97,0 7,-0.13 9.79,-2.49 7.61,-6.41 3.4,-17.49 -2.66,-18.91 0.14,-1.74 1.1,-3.69 1.51,-5.22 3.26,-11.97 -2.09,-23.91 -12.68,-30.75 -1.85,-1.19 -6.24,-3.18 -9.04,-3.24 0,-4.41 0.1,-6.66 -1.97,-10.71 -0.81,-1.58 -2.67,-4.1 -3.96,-5.15 -3.6,-2.91 -6.96,-4.74 -13.48,-4.74 0,-19.5 -14.78,-12.92 -20.15,-20.26 -4.94,-6.75 6.3,-13.99 4.68,-17.72 -0.48,-1.11 -1.39,-2.03 -2.76,-2.03 -2.05,0 -10.6,3.48 -12.29,4.35 -3.94,2.02 -6.4,4.2 -9.4,7.23 -1.15,1.16 -2.8,3.37 -3.64,4.68 -1.12,1.75 -1.98,3.46 -2.8,5.52 -1.93,4.88 -2.37,7.85 -2.37,14.66z"/>
 </g>
</svg>
