<?xml version="1.0" encoding="UTF-8"?>
<!DOCTYPE svg PUBLIC "-//W3C//DTD SVG 1.0//EN" "http://www.w3.org/TR/2001/REC-SVG-20010904/DTD/svg10.dtd">
<!-- Creator: CorelDRAW -->
<svg xmlns="http://www.w3.org/2000/svg" xml:space="preserve" width="12.5678mm" height="16.6182mm" version="1.0" style="shape-rendering:geometricPrecision; text-rendering:geometricPrecision; image-rendering:optimizeQuality; fill-rule:evenodd; clip-rule:evenodd"
viewBox="0 0 212.3 280.72"
 xmlns:xlink="http://www.w3.org/1999/xlink"
 xmlns:xodm="http://www.corel.com/coreldraw/odm/2003">
 <defs>
  <style type="text/css">
   <![CDATA[
    .fil0 {fill:white}
   ]]>
  </style>
 </defs>
 <g id="Camada_x0020_1">
  <metadata id="CorelCorpID_0Corel-Layer"/>
  <g id="_2755263883248">
   <path class="fil0" d="M101.68 264.33c-9.01,0 -9.52,-22.35 0,-22.35 9.25,0 9.12,22.35 0,22.35zm35.76 -39.11c0,-13.14 13.97,-18.31 13.97,1.68 0,12.13 -13.97,11.72 -13.97,-1.68zm-56.99 -5.03c-10.11,0 -9.56,-23.23 0.33,-22.01 9.13,1.12 7.7,22.01 -0.33,22.01zm-46.37 -32.96c-12.44,0 -7.52,-28.87 3.16,-20.48 1.01,0.79 1.39,1.48 1.89,2.58 3.76,8.27 0.24,17.9 -5.05,17.9zm115.09 -27.93c8.89,0 9.05,21.79 0.56,21.79 -11.07,0 -9.3,-21.79 -0.56,-21.79zm-55.31 -7.82c0,-14.99 13.97,-14.99 13.97,0 0,14.13 -13.97,14.13 -13.97,0zm91.62 -17.88c0,-4.98 2.34,-11.17 5.59,-11.17l2.79 0c3.67,0 8.05,9.71 3.95,17.91 -3.74,7.5 -12.33,3.52 -12.33,-6.74zm-152.52 -6.15c0,-13.04 13.97,-16.03 13.97,1.68 0,11.99 -13.97,13.87 -13.97,-1.68zm112.29 -8.94c-6.12,0 -7.26,-6.22 -7.26,-12.29 0,-11.99 13.97,-13.63 13.97,1.68 0,4.76 -2.13,10.62 -6.7,10.62zm-63.69 -28.49c9.18,0 9.37,22.11 0,22.11 -9.35,0 -9.15,-22.11 0,-22.11zm-81.57 41.9c0,13.26 0.45,19.87 4.94,31.93 4.22,11.32 8.41,21.04 13.68,31.58 0.97,1.95 1.72,2.91 2.62,4.64l8.2 14.71c2.04,3.41 3.73,6 5.88,9.21 2.07,3.1 3.96,6.11 6.04,9.05 2.06,2.91 4.19,5.62 6.46,8.63l14.07 16.1c2.65,2.65 4.9,4.89 7.54,7.54 16.74,16.8 37.43,21.03 57.4,6.84 4.02,-2.85 13.78,-10.25 17.47,-13.81l22.93 -24c2.49,-3.1 4.43,-5.57 6.85,-8.8 14.78,-19.67 38.23,-61.15 38.23,-86.91 0,-21.47 -4.17,-36.48 -16.6,-53.24 -6.56,-8.84 -16.35,-16.72 -26.4,-21.09 -19.37,-8.41 -6.8,-2.1 -33.72,10.45 -24.72,11.52 -56.28,6.62 -76.74,-10.05 -1.64,-1.33 -3.73,-3.31 -5.2,-4.3 -7.71,1.8 -15.65,5.8 -21.46,9.83 -1.73,1.2 -2.88,2.09 -4.39,3.44 -15.69,14.01 -27.79,34.1 -27.79,58.25z"/>
   <path class="fil0" d="M98.33 39.19c-1.48,-1.08 -2.52,-3.57 -4.23,-5.83 -4.43,-5.86 -9.52,-11.58 -15.77,-15.51 -4.33,-2.73 -8.41,-5.15 -13.72,-6.95 -9.15,-3.09 -12.45,-3.55 -22.15,-3.55 0,23.91 14.64,47.15 34.64,56.43 21.04,9.76 46.63,8.32 65.45,-5.5 5.91,-4.34 7.31,-6.06 11.77,-11.14 1.23,-1.39 2.29,-2.91 3.35,-4.47 2.21,-3.28 3.56,-5.95 5.28,-9.81 3.23,-7.27 5.22,-15.23 5.22,-25.51 -21.31,0 -33.46,7.04 -46.23,19.69 -4.39,4.35 -5.55,6.77 -8.37,11.18 -0.65,1.01 -0.2,0.39 -0.71,0.97 0,-4.32 0.39,-30.75 -0.4,-33.68 -2,-7.4 -12.04,-7.2 -14.01,-0.28 -1.71,6.02 -0.11,15.39 -0.12,22.23 -0.01,3.91 0,7.82 0,11.73z"/>
  </g>
 </g>
</svg>
