<?xml version="1.0" encoding="UTF-8"?>
<!DOCTYPE svg PUBLIC "-//W3C//DTD SVG 1.0//EN" "http://www.w3.org/TR/2001/REC-SVG-20010904/DTD/svg10.dtd">
<!-- Creator: CorelDRAW -->
<svg xmlns="http://www.w3.org/2000/svg" xml:space="preserve" width="211.406mm" height="211.405mm" version="1.0" style="shape-rendering:geometricPrecision; text-rendering:geometricPrecision; image-rendering:optimizeQuality; fill-rule:evenodd; clip-rule:evenodd"
viewBox="0 0 21132.74 21132.68"
 xmlns:xlink="http://www.w3.org/1999/xlink"
 xmlns:xodm="http://www.corel.com/coreldraw/odm/2003">
 <defs>
  <style type="text/css">
   <![CDATA[
    .fil0 {fill:#FEFEFE;fill-rule:nonzero}
    .fil1 {fill:#FEC345;fill-rule:nonzero}
   ]]>
  </style>
 </defs>
 <g id="Camada_x0020_1">
  <metadata id="CorelCorpID_0Corel-Layer"/>
  <g id="_2734935858672">
   <path class="fil0" d="M12703.76 5317.52c-452.43,1133.49 -1468.4,3310.92 -1468.4,3310.92l-1410.98 0c0,0 -994.45,-2177.43 -1446.88,-3310.92 -452.48,-1133.59 -525.46,-2467.03 -117.46,-3622.99 808.61,-2290.12 3649.22,-2226.92 4599.94,-4.49 479.24,1119.36 296.21,2493.89 -156.22,3627.48z"/>
   <path class="fil0" d="M8366.18 5343.54c481.36,1121.43 1302.72,3379.4 1302.72,3379.4l-997.68 998c0,0 -2242.59,-836.86 -3364.07,-1318.16 -1121.47,-481.73 -2116.13,-1373 -2644.88,-2479.04 -1047.5,-2191.19 1005.56,-4154.86 3249.57,-3255.81 1130.15,452.85 1972.66,1554.13 2454.34,2675.61z"/>
   <path class="fil0" d="M5317.57 8428.86c1133.43,452.8 3311.02,1468.77 3311.02,1468.77l0 1410.93c0,0 -2177.59,994.13 -3311.02,1446.56 -1133.65,452.43 -2467.03,525.83 -3623.05,117.46 -2290.12,-808.67 -2226.92,-3648.85 -4.44,-4599.94 1119.36,-478.92 2493.84,-295.89 3627.49,156.22z"/>
   <path class="fil0" d="M5343.53 12766.43c1121.48,-481.41 3379.51,-1302.72 3379.51,-1302.72l997.68 997.68c0,0 -836.49,2242.8 -1318.22,3364.22 -481.72,1121.43 -1372.68,2115.88 -2478.72,2644.84 -2191.19,1047.37 -4154.86,-1005.72 -3255.81,-3249.62 452.8,-1130.21 1554.13,-1972.72 2675.56,-2454.4z"/>
   <path class="fil0" d="M8428.96 15815.04c452.43,-1133.43 1468.4,-3310.65 1468.4,-3310.65l1410.97 0c0,0 994.45,2177.22 1446.88,3310.65 452.49,1133.75 525.46,2467.09 117.46,3623.1 -808.61,2290.09 -3649.16,2226.96 -4599.93,4.57 -479.25,-1119.28 -296.21,-2493.92 156.22,-3627.67z"/>
   <path class="fil0" d="M12766.53 15789.29c-481.36,-1121.74 -1302.67,-3379.77 -1302.67,-3379.77l997.62 -997.63c0,0 2242.49,836.86 3364.23,1318.21 1121.42,481.68 2115.92,1372.85 2644.89,2478.73 1047.33,2191.4 -1005.77,4154.9 -3249.68,3256.02 -1130.2,-452.8 -1972.67,-1554.13 -2454.39,-2675.56z"/>
   <path class="fil0" d="M15815.14 12703.66c-1133.38,-452.48 -3310.97,-1468.45 -3310.97,-1468.45l0 -1410.93c0,0 2177.59,-994.13 3310.97,-1446.93 1133.8,-452.43 2467.13,-525.41 3623.09,-117.09 2290.09,808.67 2226.99,3648.85 4.24,4599.94 -1119.31,478.92 -2493.53,295.89 -3627.33,-156.54z"/>
   <path class="fil0" d="M15789.07 8366.08c-1121.43,481.73 -3379.41,1303.04 -3379.41,1303.04l-997.67 -997.99c0,0 836.48,-2242.54 1318.21,-3364.02 481.73,-1121.42 1372.84,-2116.08 2478.77,-2644.83 2190.98,-1047.5 4154.87,1005.5 3255.61,3249.51 -452.75,1130.16 -1554.08,1972.56 -2675.51,2454.29z"/>
   <path class="fil1" d="M13232.71 10566.26c0,1472.63 -1193.72,2666.35 -2666.36,2666.35 -1472.63,0 -2666.36,-1193.72 -2666.36,-2666.35 0,-1472.69 1193.73,-2666.36 2666.36,-2666.36 1472.64,0 2666.36,1193.67 2666.36,2666.36z"/>
  </g>
 </g>
</svg>
