<?xml version="1.0" encoding="UTF-8"?>
<!DOCTYPE svg PUBLIC "-//W3C//DTD SVG 1.0//EN" "http://www.w3.org/TR/2001/REC-SVG-20010904/DTD/svg10.dtd">
<!-- Creator: CorelDRAW -->
<svg xmlns="http://www.w3.org/2000/svg" xml:space="preserve" width="401.613mm" height="219.051mm" version="1.0" style="shape-rendering:geometricPrecision; text-rendering:geometricPrecision; image-rendering:optimizeQuality; fill-rule:evenodd; clip-rule:evenodd"
viewBox="0 0 40150.44 21899.24"
 xmlns:xlink="http://www.w3.org/1999/xlink"
 xmlns:xodm="http://www.corel.com/coreldraw/odm/2003">
 <defs>
  <style type="text/css">
   <![CDATA[
    .fil1 {fill:#EC4899;fill-rule:nonzero}
    .fil2 {fill:#FF9100;fill-rule:nonzero}
    .fil0 {fill:white;fill-rule:nonzero}
   ]]>
  </style>
 </defs>
 <g id="Camada_x0020_1">
  <metadata id="CorelCorpID_0Corel-Layer"/>
  <path class="fil0" d="M13446.35 11431.6c38.71,85.79 82.48,176.76 131.29,272.93 49.79,98.06 97.59,186.17 143.36,264.25 89.34,152.41 177.11,274.25 263.25,365.46 46.91,49.67 93.14,95.9 138.65,138.66 46.07,43.27 89.2,81.23 129.35,113.85 34.77,28.25 71.16,54.83 109.1,79.69 30.09,19.71 55.58,34.39 76.39,44 32.55,15.02 63.26,28.18 92.11,39.47 24.29,9.51 47.24,17.51 68.78,23.96 17.52,5.25 30.56,8.84 39.11,10.73l51.57 0c220.85,0 399.89,179.04 399.89,399.89l0 241.92c0,220.85 -179.04,399.89 -399.89,399.89l-110.91 0c40.62,63.79 62.47,138.26 62.54,214.21l1.64 0c0,297.94 14.48,572.07 43.41,822.35 29.17,252.41 71.54,480.01 127.07,682.7 54.29,198.14 117.81,373.48 190.58,526 64.55,135.31 133.67,244.44 207.34,327.31 87.18,98.07 170.82,179.66 250.88,244.71 77.59,63.03 152.38,112.56 224.34,148.54 70.08,35.04 142.27,61.84 216.52,80.41 65.92,16.48 132.89,24.72 200.9,24.72 253.21,0 483.68,-85.6 691.36,-256.76 233.58,-192.52 445.57,-491.34 635.93,-896.41l-0.93 -0.4 999.97 -2327.52 -3899.25 -6619.72 -0.51 0.29c-79.96,-137.08 -162.91,-266.78 -248.77,-389.03 -85.86,-122.24 -171.36,-232.81 -256.47,-331.64 -91.47,-106.21 -173.6,-193.79 -246.36,-262.65 -70.25,-66.49 -135.8,-120.43 -196.6,-161.77 -63.99,-43.51 -129.86,-84.85 -197.55,-123.96 -56.34,-32.55 -110.28,-60.43 -161.8,-83.61 -47.88,-21.54 -92.27,-39.35 -133.12,-53.4 -15.85,-5.44 -29.36,-9.79 -40.55,-13.03l-53.11 0c-220.85,0 -399.89,-179.04 -399.89,-399.89l0 -241.91c0,-220.85 179.04,-399.89 399.89,-399.89l4335.97 0c220.85,0 399.89,179.04 399.89,399.89l0 241.91c0,190.01 -132.53,349.07 -310.2,389.78l-83.39 27.8c-8.11,31.58 -6.16,82.99 5.85,154.18 35.05,207.81 157.97,489.22 368.72,844.17 4.54,7.69 8.77,15.47 12.74,23.32l2135.64 3647.76 1532.67 -3622.65 4.8 -10.89 -0.11 -0.05c61.24,-133.63 110.58,-258.64 147.97,-374.97 34.48,-107.3 57.98,-205.89 70.45,-295.71 11.97,-86.2 16.36,-157.63 13.16,-214.21 -1.7,-30.11 -3.95,-48.12 -6.71,-54 -14.08,-29.91 -28.21,-54.59 -42.37,-73.96 -8.63,-11.82 -17.54,-21.48 -26.64,-28.93l-14.63 -11.76 -20.75 0c-220.85,0 -399.89,-179.04 -399.89,-399.89l0 -241.91c0,-220.85 179.04,-399.89 399.89,-399.89l2326.16 0c220.85,0 399.89,179.04 399.89,399.89l0 241.91c0,220.85 -179.04,399.89 -399.89,399.89l-12.35 -0.21 -33.77 4.83c-6.74,0.96 0.25,2.09 -19.6,9.18 -43.38,15.49 -90.4,34.09 -140.95,55.75 -42.52,18.22 -87.63,42.46 -135.27,72.67 -50.06,31.74 -98.3,67.35 -144.68,106.77 -47.35,40.24 -99.46,93.14 -156.32,158.64 -65.11,75.02 -133.82,162.6 -206.08,262.65 -68.5,94.86 -138.25,204.38 -209.19,328.54 -70.7,123.74 -135.38,249.2 -194.01,376.38l0.32 0.13 -3957.76 9290.52 0.22 0.09c-138.58,362.96 -292.98,677.7 -463.18,944.16 -177.67,278.19 -372.52,500.98 -584.51,668.33 -216.69,171.07 -458.68,298.67 -725.91,382.76 -261.46,82.28 -545.3,123.43 -851.46,123.43 -614.63,0 -1174.87,-114.34 -1680.68,-342.99 -244.57,-110.56 -497.73,-246.31 -759.44,-407.24 -251.55,-154.68 -522.76,-341.1 -813.59,-559.22 -159.79,-119.83 -203.89,-336.67 -111.88,-507.3l1241.55 -2483.09c6.26,-12.53 13.11,-24.57 20.45,-36.13l-3553.65 0c-220.85,0 -399.89,-179.04 -399.89,-399.89l0 -241.92c0,-219.62 177.06,-397.87 396.22,-399.84 13.56,-8.06 29.23,-18.25 47.01,-30.55 9.5,-6.57 17.06,-13.38 22.64,-20.35 7.89,-9.86 16.04,-24.38 24.41,-43.55 1.81,-4.15 3.3,-20.87 4.42,-50.12 2.17,-56.51 -2.99,-129.78 -15.48,-219.72 -13.16,-94.73 -36.14,-198.53 -68.92,-311.3 -34.33,-118.11 -80.59,-249.85 -138.7,-395.17l-3.78 -9.81 -821.21 -1987.3c-739.61,20.89 -1423.45,107.18 -2051.46,258.86 -691,166.9 -1314.21,413.83 -1869.54,740.75l0.12 0.2c-362.51,218.65 -675.61,458.39 -939.23,719.14 -244.6,241.94 -444.72,499.06 -600.31,771.28 -25.04,131.68 -38.66,244.31 -40.87,337.86 -1.86,79.41 4.29,138.26 18.45,176.5 6.84,18.47 12.93,33.38 18.27,44.74l131.56 26.3c190.32,37.91 321.93,205.12 321.73,392.08l0.05 241.92c0,220.85 -179.04,399.89 -399.89,399.89l-2326.16 0c-220.85,0 -399.89,-179.04 -399.89,-399.89l0 -241.92c0,-220.85 179.04,-399.89 399.89,-399.89 9.22,0 24.6,-1.54 46.12,-4.61 6.78,-0.97 -0.24,-2.09 19.61,-9.18 43.38,-15.5 90.39,-34.1 140.94,-55.76 47.18,-20.21 94.36,-44.72 141.52,-73.47 53.72,-32.75 103.01,-67.07 147.8,-102.9 42.58,-34.06 92.63,-83.6 150.08,-148.54 62.49,-70.64 130.15,-156.4 202.96,-257.2 71.24,-98.65 140.47,-208.16 207.62,-328.48 65.76,-117.82 131.37,-251.12 196.83,-399.86l1.81 -3.98 4666 -11153.81c63.74,-153.49 212.2,-246.1 368.65,-246.16l0 -0.64 465.23 0c175.31,0 324.26,112.83 378.24,269.82l4642.74 11142.58c2.65,6.38 5.12,12.78 7.41,19.2zm-581.01 632.21c-44.57,-87.8 -93.1,-190.25 -145.55,-307.27 -6.63,-12.21 -12.7,-24.86 -18.15,-37.97l-4516.56 -10839.76 -880.13 2103.89c102.52,36.51 189.82,114.56 234.85,222.98l2288.94 5489.74 -0.56 0.23c18.21,43.83 28.86,91.66 30.24,141.92 1.14,41.6 -4.15,81.88 -14.94,119.91 82.99,41.57 151.91,112.15 189.96,204.74l924.67 2237.7c2.57,5.64 5.03,11.35 7.36,17.16 65.91,164.82 120.5,321.55 163.7,470.15 44.75,153.93 76.05,295.2 93.91,423.77 18.52,133.35 25.75,252.42 21.73,357.18 -5.07,132.02 -28.42,245.59 -70.02,340.68l-7.93 17.66 2380.38 0c-47.44,-45.55 -95.47,-94.07 -144.09,-145.55 -124.75,-132.09 -247.91,-301.83 -369.46,-509.18 -59.66,-101.79 -115.8,-204.47 -168.35,-307.98zm-9697.91 932.48c-34.69,-93.66 -55.68,-201.79 -62.95,-324.32 -68.92,92.11 -135.22,174.16 -198.9,246.14 -34.18,38.64 -68.07,74.78 -101.66,108.41l375.14 0c-3.97,-9.95 -7.85,-20.02 -11.63,-30.23zm3777.64 -4223.23c383.99,-93.66 785.43,-167.68 1204.28,-222.04 236.98,-30.75 478.33,-54.86 724.06,-72.32l-1702.9 -4084.17 -2153.69 5147.84c258.87,-144.95 528.97,-275.82 810.23,-392.56 345.59,-143.45 709.63,-267.05 1092.12,-370.76 8.63,-2.31 17.27,-4.28 25.9,-5.99zm15771.66 -3637.3l-379.4 0 7.67 16.04c44.17,93.86 70.91,203.19 80.19,327.91 60.89,-80.61 118.9,-152.66 173.99,-216.14 40.18,-46.29 79.36,-88.9 117.55,-127.81zm-3633.24 7820.07l695.03 -1631.51c-82.63,-30.96 -155.55,-89.41 -203.66,-171.44l-2536.99 -4333.24c-4.32,-6.44 -8.5,-13.01 -12.49,-19.76 -260.66,-439.01 -416.92,-812.06 -468.69,-1119.1 -34.79,-206.23 -26.58,-387.91 24.61,-545.01l-2366.56 0c36.25,31.02 73.11,64.25 110.56,99.7 100.9,95.49 201.79,201.82 302.59,318.87 107.17,124.46 209.34,255.85 306.46,394.12 97.11,138.26 192.55,287.73 286.26,448.39l-0.48 0.28 3863.35 6558.7zm-4425.57 4135.54c63.4,28.66 128.1,55.05 194.07,79.16 -80.97,-73.14 -160.22,-153.33 -237.74,-240.54 -124.83,-140.41 -235.6,-312.02 -332.31,-514.76 -88.52,-185.53 -167.67,-405.66 -237.45,-660.34 -25.69,-93.77 -48.88,-189.94 -69.55,-288.5l-471.98 943.97c163.57,115.04 325.61,221.92 486.14,320.62 237.62,146.11 460.58,266.26 668.82,360.39zm13234.49 -5525.88c0,398.62 52.11,702.15 156.31,910.55 80.5,161.02 197.26,262.88 350.22,305.57l2.89 0.84 0.24 -0.84 130.26 37.22c175.74,50.01 290.36,210.17 290.28,384.28l0.26 0 0 223.31c0,220.85 -179.04,399.89 -399.89,399.89l-4335.97 0c-220.85,0 -399.89,-179.04 -399.89,-399.89l0 -223.31c0,-179.93 118.85,-332.1 282.31,-382.32 18.39,-6.8 37.43,-12.88 57.12,-18.25 34.85,-9.5 67.93,-16.67 99.15,-21.45l-0.58 -1.38c-1.51,-0.11 -2.06,-0.42 -0.45,-1.09 26.85,-11.19 60.89,-27.7 102.1,-49.52 29.89,-15.82 56.62,-33.55 80.15,-53.16 25.35,-21.12 50.57,-47.11 75.59,-77.91 17.64,-21.71 38.2,-58.48 61.64,-110.25 30.57,-67.52 60,-148.84 88.26,-243.87 56.76,-190.97 85.17,-417.13 85.17,-678.43l0 -8057.84c0,-142.75 -6.72,-271.89 -20.14,-387.37 -13.38,-115.08 -32.48,-217.31 -57.28,-306.61 -25.03,-90.14 -51.61,-164.44 -79.69,-222.84 -20.19,-42.02 -39.95,-73.32 -59.2,-93.86 -38.54,-41.12 -75.19,-76.74 -109.89,-106.8 -32.63,-28.28 -65.64,-53.56 -98.95,-75.76l-1.08 -0.73 -0.49 0.73c-18.8,-12.54 -33.48,-21.62 -44.02,-27.25 -19.51,-1.61 -38.64,-4.6 -57.26,-8.91l-80.67 -16.14c-190.32,-37.91 -321.93,-205.12 -321.73,-392.08l-0.05 -223.31c0,-220.85 179.04,-399.89 399.89,-399.89 340.03,0 655.16,-31 945.39,-92.98 288.53,-61.63 552.99,-152.54 793.3,-272.69 242.56,-121.29 439.36,-243.69 590.3,-367.2 126.25,-103.28 210.26,-198.6 252.01,-285.89 68.34,-142.9 210.79,-226.4 359.28,-226.51l0 -1.55 465.23 0c220.85,0 399.89,179.04 399.89,399.89l0 11165.59zm-556 1266.72c-162.52,-325.04 -243.78,-747.3 -243.78,-1266.72l0 -10587.41c-51.87,52.41 -108.7,103.9 -170.51,154.47 -190.2,155.63 -436.98,309.27 -740.26,460.92 -305.55,152.77 -633.54,266.59 -983.88,341.43 -64.44,13.77 -129.63,26.25 -195.55,37.47 65.67,74.87 124.54,166.49 176.61,274.81 49.45,102.84 92.7,220.9 129.68,354.06 37.22,133.98 64.65,276.83 82.28,428.45 17.6,151.23 26.38,310.57 26.38,477.96l0 8057.84c0,334.18 -39.86,635.32 -119.54,903.37 -39.96,134.44 -81.9,250.11 -125.75,346.97 -35.69,78.82 -74.34,149.06 -115.92,210.7l2394.46 0c-41.45,-60.15 -79.52,-124.93 -114.22,-194.32zm-3210.7 -51.12l7.42 -1.1c8.84,-1.26 -3.62,0.04 -8,-0.28l0.58 1.38zm13834.34 -1215.6c0,398.62 52.11,702.15 156.31,910.55 76.31,152.64 185.21,252.1 326.63,298.41l103.86 14.84c199.36,28.36 343.21,199.46 342.97,395.2l0.69 0 0 241.92c0,220.85 -179.04,399.89 -399.89,399.89l-2475.03 0c-29.5,0 -67.65,-3.12 -114.37,-9.34 -33.67,-4.48 -70.74,-11.24 -111.12,-20.2 -67.15,-14.94 -140.58,-44.25 -220.22,-87.91 -58.36,-32.01 -127.48,-75.23 -207.24,-129.64 -56.82,-38.74 -109.83,-81.88 -159.01,-129.41 -194.52,134.31 -426.03,242.71 -694.54,325.17 -434.57,133.44 -968.34,200.19 -1601.25,200.19 -638.75,0 -1207.09,-65.17 -1705.03,-195.5 -515.09,-134.81 -951.74,-339.19 -1309.89,-613.04 -366.4,-280.19 -642.75,-614.76 -828.97,-1003.63 -185.25,-386.86 -277.88,-818.65 -277.88,-1295.37 0,-476.73 92.63,-908.53 277.88,-1295.37 186.22,-388.89 462.57,-723.44 828.97,-1003.63 261.14,-199.7 564.03,-362.42 908.63,-488.2l-1041.26 -2066.98c-92.15,-182.69 -30.51,-402.62 136.33,-512.51 175.97,-133.68 304.95,-231 387.1,-292.05 98.66,-73.33 196.01,-144 291.64,-211.74 93.99,-66.57 194.39,-130.5 301.1,-191.7 98.33,-56.4 226.1,-123.91 383.16,-202.43 153.95,-76.97 306.83,-141.9 458.59,-194.77 160.51,-55.89 317.03,-99.12 469.5,-129.61 153.92,-30.79 318.17,-53.82 492.69,-69.06 171.62,-14.99 352.89,-22.49 543.8,-22.49 1555.7,0 2733.96,400.39 3534.71,1201.16 800.76,800.74 1201.16,1979.01 1201.16,3534.71l0 2642.53zm-556 1266.72c-162.52,-325.04 -243.78,-747.3 -243.78,-1266.72l0 -2642.53c0,-1334.93 -322.28,-2324.69 -966.84,-2969.24 -406.57,-406.57 -950.53,-684.88 -1631.81,-834.98 16.17,13.81 32.1,27.88 47.81,42.23 116.18,106.17 216.12,225.01 299.79,356.48 81.64,128.29 152.55,268.56 212.71,420.74 57.26,144.85 109.01,311.46 155.19,499.75 86.56,352.88 139.83,702.51 159.82,1048.84 8.78,152.12 17.32,332.57 25.58,541.26 7.4,186.53 14.39,401.09 20.93,643.63l-0.57 0.01c2.17,90.24 -26.16,181.71 -86.91,257.74 -25.53,31.95 -54.99,58.92 -87.13,80.78 117.43,208.61 176.16,452.47 176.16,731.57l0 2251.73c0,166.27 -22.54,323.43 -67.59,471.5l-3.69 11.93c97.56,37.33 180.45,112.68 224.58,216.39 43.56,101.64 101.64,177.23 174.2,226.7 56.64,38.63 103.88,68.32 141.64,89.03 16.52,9.05 -3.55,7.29 7.78,9.81 15.41,3.42 29.56,6.01 42.38,7.71l1513.96 -0.04c-41.45,-60.15 -79.52,-124.93 -114.22,-194.32zm-6001.3 175.8c249.89,65.4 525.7,111.63 827.39,138.7 -158.77,-111.2 -299.63,-247.92 -422.57,-410.2 -185.17,-244.43 -323.36,-526.23 -414.53,-845.34 -87.95,-307.81 -131.92,-649.01 -131.92,-1023.53 0,-374.53 43.98,-715.73 131.92,-1023.53 91.17,-319.12 229.36,-600.93 414.53,-845.34 122.94,-162.28 263.81,-299.01 422.58,-410.21 -301.69,27.07 -577.49,73.3 -827.39,138.7 -409.14,107.08 -751.03,265.63 -1025.59,475.59 -266.29,203.64 -464.52,441.34 -594.65,713.09 -131.09,273.77 -196.66,591.02 -196.66,951.7 0,360.68 65.56,677.93 196.66,951.7 130.12,271.74 328.36,509.45 594.65,713.09 274.57,209.95 616.44,368.5 1025.58,475.58zm370.91 -5168.7c349.54,-52.82 727.58,-79.23 1134.17,-79.23 535.28,0 1001.78,47.59 1399.46,142.76 125.86,30.12 244.67,65.18 356.48,105.19 -6.77,-163.95 -14.62,-323.14 -23.51,-477.51 -17.24,-298.79 -63.23,-600.52 -137.94,-905.14 -34.44,-140.45 -75.78,-271.65 -123.96,-393.51 -45.28,-114.53 -92.24,-210.01 -140.85,-286.41 -46.59,-73.21 -101.75,-138.94 -165.45,-197.15 -63.62,-58.13 -139.44,-111 -227.39,-158.54 -83.62,-45.2 -175.15,-79.23 -274.54,-102.07 -103.2,-23.72 -218.53,-35.59 -345.96,-35.59 -87.43,0 -167.36,7.99 -239.75,23.95 -76.71,16.92 -151.49,42.45 -224.27,76.57 -71.65,33.58 -145.41,80.01 -221.21,139.22 -82.88,64.75 -166.01,142.71 -249.32,233.85 -69.9,76.45 -135.39,180.65 -196.45,312.53 -67.15,145.05 -125.52,318.06 -175.05,518.98 -51.67,209.56 -90.44,441.28 -116.24,695.11 -12.38,121.76 -21.79,250.75 -28.24,386.99zm-71.36 -2450.96c65.38,-71.51 130.84,-137.28 196.37,-197.31 -95.89,36.51 -190.21,77.94 -282.89,124.29 -115.82,57.9 -230.02,119.14 -342.55,183.69 -104.19,59.75 -183.75,109.09 -238.62,147.95 -53.25,37.72 -145.17,105.1 -276.03,202.37l-136.43 101.72 458.29 909.72c18.72,-101.93 39.7,-199.99 62.91,-294.14 62.1,-251.9 137.13,-472.82 225.04,-662.7 94.01,-203.08 205.32,-374.96 333.91,-515.59zm2982.93 6605.15l0 -2251.73c0,-169.32 -37.03,-301.6 -111.05,-396.77 -77.99,-100.28 -180.91,-169.23 -308.68,-206.81 -99.63,-29.3 -185.15,-52.04 -256.47,-68.18 -66.3,-15.02 -121.27,-24.82 -164.83,-29.4 -52.53,-5.53 -105.48,-9.67 -158.83,-12.4 -40.22,-2.06 -94.74,-3.1 -163.44,-3.1 -488.34,0 -847.36,151.6 -1077.04,454.79 -124.97,164.96 -219.42,359.27 -283.3,582.91 -67.12,234.94 -100.69,503.23 -100.69,804.83 0,301.6 33.57,569.9 100.69,804.83 63.88,223.64 158.34,417.96 283.3,582.91 229.68,303.19 588.7,454.79 1077.04,454.79 68.69,0 123.22,-1.04 163.44,-3.1 53.35,-2.73 106.3,-6.87 158.83,-12.4 43.56,-4.59 98.52,-14.4 164.83,-29.4 71.32,-16.15 156.84,-38.88 256.47,-68.18 127.77,-37.58 230.69,-106.53 308.68,-206.81 36.49,-46.92 63.48,-99.09 80.95,-156.47 20.05,-65.93 30.1,-146.05 30.1,-240.31z"/>
  <path class="fil1" d="M13070.29 11565.48c99.25,223.31 201.61,424.91 307.06,604.8 105.45,179.89 210.9,325.66 316.35,437.32 105.45,111.66 207.8,207.8 307.06,288.44 99.25,80.64 189.2,139.57 269.84,176.79 80.64,37.22 151.97,65.13 214,83.74 62.03,18.61 111.66,27.91 148.88,27.91l55.82 0 0 241.92 -4335.97 0 0 -241.92c24.81,0 55.82,-3.1 93.04,-9.3 37.22,-6.21 96.15,-37.22 176.79,-93.05 80.64,-55.82 142.67,-133.36 186.09,-232.61 43.43,-99.25 49.63,-260.53 18.61,-483.85 -31.02,-223.31 -108.56,-490.04 -232.62,-800.19l-930.47 -2251.73c-1749.28,12.41 -3213.2,365.98 -4391.8,1060.73 -781.59,471.43 -1352.28,1035.92 -1712.06,1693.44 -74.44,359.78 -80.64,623.41 -18.6,790.9 62.02,167.48 148.87,263.64 260.53,288.45l186.09 37.21 0 241.92 -2326.16 0 0 -241.92c24.81,0 58.92,-3.1 102.35,-9.3 43.42,-6.21 130.26,-37.22 260.53,-93.05 130.26,-55.82 257.43,-133.36 381.49,-232.61 124.07,-99.25 266.74,-260.53 428.01,-483.85 161.29,-223.31 310.16,-490.04 446.63,-800.19l4670.93 -11165.59 465.23 0 4652.33 11165.59zm-6048.02 -2400.6c756.78,-186.09 1569.38,-291.55 2437.81,-316.36l-2288.94 -5489.74 -3051.93 7294.84c272.94,-248.12 583.09,-471.43 930.47,-669.93 583.09,-347.38 1240.62,-620.31 1972.59,-818.81zm14496.65 -4187.1l0 -241.91 2326.16 0 0 241.91c-24.81,0 -58.92,3.11 -102.35,9.31 -43.42,6.21 -130.26,37.22 -260.53,93.04 -130.26,55.83 -257.42,136.47 -381.49,241.92 -124.07,105.45 -266.74,269.84 -428.01,493.15 -161.28,223.31 -310.16,483.84 -446.62,781.59l-3963.79 9304.66c-260.53,682.34 -567.58,1163.08 -921.16,1442.22 -353.57,279.13 -797.1,418.71 -1330.56,418.71 -558.28,0 -1063.83,-102.35 -1516.66,-307.06 -452.83,-204.7 -952.17,-511.75 -1498.05,-921.16l1246.82 -2493.65c0,620.31 62.03,1156.88 186.09,1609.71 124.07,452.83 285.34,790.9 483.84,1014.21 198.51,223.32 397,384.6 595.5,483.85 198.51,99.24 397,148.87 595.5,148.87 694.75,0 1259.23,-465.23 1693.45,-1395.69l1079.34 -2512.26 -4001 -6792.4c-173.69,-297.75 -356.68,-558.28 -548.98,-781.59 -192.29,-223.31 -365.98,-387.7 -521.06,-493.15 -155.08,-105.45 -294.64,-186.09 -418.71,-241.92 -124.07,-55.82 -223.31,-89.95 -297.75,-102.35l-93.04 0 0 -241.91 4335.97 0 0 241.91c0,0 -74.44,24.81 -223.31,74.44 -297.75,235.72 -210.91,750.58 260.53,1544.57l2549.47 4354.58 1842.32 -4354.58c136.46,-297.75 220.21,-558.28 251.22,-781.59 31.02,-223.31 21.71,-387.7 -27.91,-493.15 -49.63,-105.45 -108.55,-186.09 -176.79,-241.92 -68.23,-55.82 -133.36,-89.95 -195.4,-102.35l-93.04 0zm5973.6 6587.71c0,918.05 266.73,1451.52 800.19,1600.4l130.26 37.22 0 223.31 -4335.97 0 0 -223.31c24.81,-12.41 58.93,-21.71 102.35,-27.91 43.43,-6.21 117.86,-37.22 223.31,-93.05 105.46,-55.82 198.51,-133.36 279.14,-232.61 80.64,-99.25 155.08,-263.64 223.31,-493.15 68.23,-229.52 102.35,-493.15 102.35,-790.9l0 -8057.84c0,-310.16 -31.01,-576.88 -93.04,-800.19 -62.03,-223.32 -139.57,-384.6 -232.62,-483.85 -93.04,-99.24 -186.09,-179.89 -279.14,-241.91 -93.04,-62.03 -170.58,-93.04 -232.61,-93.04l-93.05 -18.61 0 -223.31c731.97,0 1370.89,-136.47 1916.76,-409.41 545.87,-272.94 887.04,-552.07 1023.51,-837.41l465.23 0 0 11165.59zm10067.64 0c0,918.05 266.73,1451.52 800.19,1600.4l130.26 18.6 0 241.92 -2475.03 0c-37.22,0 -83.75,-6.2 -139.57,-18.6 -55.82,-12.41 -151.98,-65.13 -288.44,-158.19 -136.47,-93.04 -241.92,-226.41 -316.35,-400.09 -384.6,483.84 -1172.39,725.75 -2363.38,725.75 -1215.81,0 -2140.07,-241.91 -2772.79,-725.75 -632.72,-483.85 -949.07,-1144.48 -949.07,-1981.9 0,-837.42 316.35,-1498.05 949.07,-1981.9 632.72,-483.84 1556.98,-725.76 2772.79,-725.76 1017.31,0 1743.07,173.69 2177.28,521.07 -12.41,-459.04 -27.91,-849.83 -46.52,-1172.39 -18.61,-322.56 -68.24,-648.23 -148.88,-976.99 -80.64,-328.76 -186.09,-595.5 -316.35,-800.2 -130.26,-204.69 -310.16,-369.08 -539.67,-493.15 -229.51,-124.06 -499.35,-186.09 -809.5,-186.09 -223.31,0 -434.22,46.53 -632.72,139.57 -198.5,93.04 -396.99,248.12 -595.5,465.23 -198.5,217.1 -353.57,552.07 -465.22,1004.9 -111.66,452.83 -167.48,1001.8 -167.48,1646.93l-1246.82 -2475.04c310.15,-235.72 539.66,-406.3 688.54,-511.75 148.87,-105.45 359.77,-226.42 632.71,-362.88 272.94,-136.47 548.98,-232.62 828.12,-288.44 279.14,-55.83 598.6,-83.75 958.38,-83.75 2890.65,0 4335.97,1445.33 4335.97,4335.97l0 2642.53zm-2475.04 428.01l0 -2251.73c0,-260.53 -65.13,-474.53 -195.4,-642.02 -130.26,-167.48 -300.85,-282.24 -511.75,-344.28 -210.9,-62.02 -375.29,-99.24 -493.15,-111.65 -117.86,-12.41 -238.83,-18.61 -362.88,-18.61 -620.31,0 -1085.55,204.7 -1395.7,614.11 -310.16,409.4 -465.22,952.17 -465.22,1628.31 0,676.14 155.07,1218.91 465.22,1628.31 310.16,409.41 775.39,614.11 1395.7,614.11 124.06,0 245.02,-6.21 362.88,-18.61 117.86,-12.41 282.24,-49.63 493.15,-111.65 210.9,-62.03 381.49,-176.79 511.75,-344.28 130.26,-167.48 195.4,-381.49 195.4,-642.02z"/>
  <path class="fil0" d="M2595.71 21293.73l7.02 -43.25c19.44,-123.55 24.04,-279.66 24.04,-353.34 0,-4.63 0.14,-9.24 0.39,-13.81 -7.88,-282.98 -2.95,-567.34 1.97,-851.83 5.96,-343.6 11.92,-687.5 -6.14,-1030.66 -0.22,-4.25 -0.32,-8.49 -0.33,-12.7l-0.65 0c0,-64.68 -8.73,-157.15 -20.98,-250.2 -15.15,-114.99 -35.96,-233.79 -53.11,-307.29l-0.81 -3.7c-3.67,-11.35 -7.88,-19.39 -12.41,-23.17 -0.89,-0.75 -0.75,1.19 -5.53,1.19 -3.9,0 -5.8,0.21 -6.38,0.55 -9.89,5.87 -21.88,17.36 -35.46,32.27 -26.99,34.47 -48.44,63.66 -65.17,88.35 -19.02,28.05 -39.23,60.14 -60.02,94.79l-3.18 5.17c-136.68,234.6 -258.03,490.88 -379.48,747.39 -99.71,210.63 -199.54,421.46 -311.29,627.77 -65.23,121.32 -216.48,166.78 -337.8,101.54 -55.68,-29.94 -95.36,-78 -115.72,-132.96l-0.47 0.18c-34.57,-93.19 -68.7,-203.69 -102.82,-314.15 -58.12,-188.14 -116.26,-376.32 -207.1,-533.25l-2.37 -4.21c-30.9,-50.73 -67.89,-102.93 -109.71,-140.18 -23.39,-20.84 -46.87,-35.32 -67.29,-35.32 -9.55,0 -17.83,1.83 -24.36,5.28 -8.36,4.41 -16.3,11.25 -23.4,20.29l0.48 0.33c-33.72,48.48 -48.8,138.75 -63.51,227.05 -6.88,41.24 -5.74,37.57 -9.74,59.95 -0.83,4.64 -1.79,9.23 -2.87,13.77 -21.73,135.45 -38.09,270.17 -51.11,404.3l-3.08 32.43c40.87,-98.11 142.03,-162.62 253.39,-152.1 107.16,10.12 192.01,86.73 217.67,185.18 41.08,140.33 98.99,330.42 186.12,478 62.09,105.16 138.5,187.01 229.74,187.01 8.71,0 16.92,-1.19 24.74,-3.55l6.32 -1.82c8.25,-3.11 17.76,-8.02 28.54,-14.66 3.71,-2.28 7.45,-4.45 11.23,-6.51 21.34,-17.79 51.25,-64.55 79.9,-109.34l0.45 -0.69 -0.45 -0.29 18.48 -28.64c57.31,-87.73 254.19,-525.85 370.84,-785.46 34.2,-76.1 61.24,-136.3 81.82,-180.39 58.22,-124.55 206.42,-178.31 330.97,-120.09 90.4,42.26 143.49,131.91 143.55,225.53l0.94 0c0,9.92 -0.59,19.65 -1.71,29.24 -13.54,379.36 -26.86,759.28 -26.86,1170.42 0,91.61 -0.74,0.19 -1.46,91.53 -1.43,178.09 -2.91,362.07 51.52,506.13 2.52,6.69 4.71,13.41 6.62,20.15 10.24,31.55 22.23,66.71 36.04,97.74zm499.07 32.91c-19.79,125.7 -54.35,244.32 -112.32,322.41 -43.76,61.34 -99.05,109.14 -160.34,142.28 -67.65,36.55 -142.21,55.54 -216.77,55.54 -186.21,0 -310.79,-97.69 -397.99,-227.94 -60.43,-90.26 -95.82,-189.4 -121.87,-269.77 -85.51,-227.98 -83.65,-459.36 -81.86,-683.37 0.24,-31.27 -0.5,63.26 -0.5,-87.63l0.05 -39.63c-58.63,91.68 -120.32,187.19 -228.62,258.54 -6.1,4.56 -12.45,8.9 -19.06,12.97 -43.91,27.02 -89.44,48.44 -137.31,64.25 -4.82,1.78 -9.72,3.44 -14.7,4.95 -55.23,16.69 -111.32,25.02 -169.24,25.02 -194.82,0 -349.07,-75.52 -472.51,-192.46 -9.85,188.44 -29.53,467.99 -67,596.59 -1.71,6.44 -3.68,12.85 -5.93,19.23 -31.7,89.76 -87.35,158.33 -154.61,206.35 -75.08,53.65 -163.15,79.61 -247.3,79.61 -217.98,0 -339.24,-123.42 -407.35,-285.38 -44.72,-106.29 -58.32,-220.23 -64.62,-308.7l-0.73 -7.66c-12.07,-152.05 -15.62,-310.24 -13.69,-472.32 1.93,-161.9 9.05,-314.36 18.45,-462.58 9.28,-143.89 20.1,-291.57 35.49,-449.95 14.36,-147.79 32,-293.96 54.99,-437.2 0.65,-7.27 1.6,-14.56 2.91,-21.87 10.73,-60.07 9.24,-51.09 9.74,-54.1 23.95,-143.7 48.47,-290.61 145.51,-430.11l0.59 0.41 2.34 -3.34c54.13,-74.93 121.46,-133.61 197.69,-173.89 79.18,-41.84 166.25,-63.86 256.72,-63.86 160.46,0 291.75,66.48 399.24,162.25 84.15,74.96 151.05,167.97 204.11,255.2 2.61,3.97 5.14,8.03 7.55,12.2 66.95,115.65 117.37,234.85 160.59,355.57l32.03 -67.62c124.28,-262.51 248.46,-524.77 400.47,-785.59l5.62 -9.92c22.03,-36.73 47.1,-76.1 75.66,-118.23 30.85,-45.51 59.42,-85.38 84.74,-117.6l0.42 0.33c2.69,-3.42 5.48,-6.78 8.37,-10.09 49.43,-56.48 101.07,-105.48 165.27,-143.6 75.57,-44.86 159.39,-70.85 260.21,-70.85 128.57,0 238.08,42.64 325.76,115.96 82.28,68.81 140.17,162.69 171.82,270.94 2.86,8.25 5.33,16.72 7.35,25.4 19.03,81.59 42.87,219.02 60.92,356.09 15.69,119.04 26.84,235.76 26.84,314.65l-0.33 0c12.33,242.01 13.1,486.38 10.37,731.35l7.42 -22.99 0.6 0.19 0.37 -1.17c80.22,-240.67 206.95,-475.26 393.02,-642.5 168.99,-151.9 380.97,-248.17 643.02,-248.17 222.3,0 459.2,80.75 633.6,227.55 166.33,140 278.06,336.53 278.06,579.37l-0.75 0c2.38,92.88 -10.03,185.29 -35.1,273.02 -26.14,91.55 -66.46,180.42 -118.43,261.61l-0.45 -0.29c-70.1,109.58 -160.17,208.85 -262.65,291.04 -102.56,82.26 -219.26,149.28 -342.69,194.44l-0.14 -0.38 -6.69 2.33c-44.27,14.75 -89.78,26.74 -135.72,35.8 4.24,6.02 8.78,11.72 13.63,17.03 18.03,19.82 45.87,36.07 78.09,47.82 40.94,14.93 85.17,21.41 125.45,18.73l0.02 0.25 3.88 -0.25c117.18,-6.17 248.46,-57.89 376.83,-109.76 4.02,-1.88 8.11,-3.67 12.27,-5.36 30.01,-12.14 -43.62,17.71 49.76,-19.65 54.69,-21.88 109.43,-32.83 164.16,-32.83 47.01,0 91.59,7.89 132.92,22.19 -1.24,-14.95 -2.38,-29.9 -3.41,-44.87 -10.13,-146.82 -10.07,-295.99 -2.38,-444.65l0.12 0.01c5.26,-132.18 22.24,-407.68 84.07,-653.04 82.69,-328.19 247.05,-612.49 569.42,-612.49 16.83,0 34.87,1.15 53.96,3.41l-0.01 0.12c117.87,14.11 228.9,74.05 309.41,164.19 79.75,89.31 131.24,208.1 131.24,340.72 0,14.62 -0.81,30.44 -2.47,47.51l-5.15 107.98c-1.88,38.74 -3.78,77.5 -3.78,100.15l-0.75 0c0,8.07 -0.39,16.21 -1.2,24.4 -13.92,139.13 -25.48,279.8 -31.16,418.58 -5.04,122.79 -5.44,246.47 1.32,369.77 96.28,-181.55 177.42,-369.03 227.34,-510.13l0.49 0.17 1.46 -4.07c1.54,-4.11 6.5,-58.57 13.53,-113.4 5.66,-44.12 10.9,-84.93 15.8,-113.05 8.11,-60.44 35.11,-201.23 64.95,-321.78 24.94,-100.78 55.32,-196.75 87.11,-249.7l0.14 0.08c46.85,-78.77 117.68,-144.18 197.76,-188.84 80.64,-44.97 173.64,-71.34 263.47,-71.34 80.31,0 156.39,19.49 225.31,53.96 91.01,45.51 164.98,116.93 215.54,203.13 49.25,83.98 76.95,181.39 76.95,281.49 0,83.52 -19.42,170.86 -61.93,255.87 -6.74,13.48 -0.45,40.55 -6.27,84.33 -5.07,38.06 -9.58,71.9 -14.34,95.49 -14.43,115.12 -27.09,234.53 -36.35,361.99 -9.23,126.89 -13.96,250.04 -11.97,367.55l0.06 1.77c2.08,83.22 9.74,169.16 21.85,256.73 12,86.74 28.53,173.66 48.46,259.99l-0.31 0.07c2.93,11.85 4.98,23.18 6.9,34.95 55.34,87.35 76.58,187.99 67.62,286.42 -10.1,111.09 -59.87,220.4 -143.01,302.79 -5.02,5.46 -10.3,10.75 -15.89,15.83 -48.23,43.85 -103.97,79.1 -164.92,103.47 -61.66,24.66 -126.93,38.11 -193.44,38.11 -122.78,0 -230.82,-44.28 -321.01,-113.33 -51.44,-39.39 -96.66,-87.5 -134.68,-139.55 -80.35,81.08 -170.86,153.31 -273.59,209.61 -8.87,5.53 -18.19,10.58 -27.92,15.07 -47.17,21.76 -99.51,38.21 -153.55,49.26 -55.52,11.35 -110.14,17.03 -160.38,17.03 -49.2,0 -98.4,-0.01 -163.55,-17.96 -192.72,-41.22 -340.21,-157.22 -450.65,-305.85 -59.34,-79.87 -107.39,-169.36 -145.44,-260.26 -7.88,7.44 -16.15,14.73 -24.8,21.83l-0.08 -0.09c-140.65,117.17 -282.38,225.74 -440.76,307.29 -173.61,89.39 -361.81,145.54 -578.98,145.54 -324,0 -609.82,-121.42 -824.83,-321.67 -131.05,-122.06 -234.97,-273.28 -304.24,-443.77 -4.01,88.56 -12.43,199.15 -28.67,302.34zm1409.96 -82.23c-22.63,2.78 -45.63,4.87 -69.01,6.19l0.01 0.22c-107.06,7.13 -222.9,-9.5 -328.51,-48.01 -105.27,-38.4 -203.13,-99.05 -277.26,-180.6 -71.23,-78.02 -120.05,-171.38 -151.64,-270.7 -33.76,-106.11 -47.07,-215.37 -47.07,-316.16 0,-130.73 100.38,-238.01 228.27,-248.98 -60.05,-27.15 -109.29,-77.92 -132.69,-145.06 -18.17,-52.14 -17.99,-106.21 -2.89,-155.22 31.44,-101.44 80.98,-221.56 151.58,-312.92 82.05,-106.18 189.58,-178.01 329.39,-178.01 28.31,0 56.32,3.47 85.78,10.42 21.73,5.11 44.25,12.59 68.85,22.41 107.23,42.98 168.17,152.09 154.75,261.59l0.49 0.06c-14.16,113.25 -84.7,222.91 -174.19,311.02 -78.88,77.64 -181.41,146.41 -267.16,182.61 29.39,-4.78 57.85,-11.52 84.72,-20.06l-0.09 -0.25c70.83,-25.91 139.03,-65.36 200.15,-114.38 62.47,-50.1 115.91,-108.36 155.71,-170.66l0.45 -0.69 -0.45 -0.29c25.09,-39.21 44.81,-82.98 57.9,-128.83 12.57,-43.97 18.7,-87.64 17.3,-128.53l-0.11 -7.81 -0.87 0c0,-81.41 -39.56,-149.07 -98.42,-198.62 -83.11,-69.95 -200.45,-108.44 -313.37,-108.44 -125.98,0 -227.89,46.29 -309.13,119.31 -116.04,104.28 -198.79,261.34 -253.99,426.55l0.58 0.19c-41.85,127.76 -72.22,260.64 -86.93,393.7 -13.43,121.58 -14.01,242.48 1.48,358.61l0.79 6.86 0.19 -0.02c20.24,197 106.63,370.57 238.1,493.02 124.96,116.38 292.91,186.95 485.08,186.95 91.07,0 174.21,-16.76 252.22,-45.47zm1657.56 135.31c66.14,-36.89 128.07,-91.19 185.42,-154.23 66.36,-72.94 125.47,-157.19 177.97,-241.19 72.79,-117 226.66,-152.84 343.66,-80.05 58.84,36.61 97.14,93.72 111.44,156.35 9.97,37.74 20.19,75.07 32.46,114.01 11.28,35.8 22.67,68.38 34.49,95.96 15.24,31.63 36.59,61.55 61.81,80.87 7.82,5.99 14.46,9.84 18.36,9.84 3.66,0 6.31,-0.37 7.95,-1.02l3.5 -1.65c-35.89,-54.19 -44.7,-109.99 -52.01,-156.3 -0.02,-0.11 0,-0.11 0.06,-0.01l0.81 -0.12c-1.08,-3.83 -2.05,-7.67 -2.93,-11.51l-0.53 0.12c-22.91,-99.29 -42.11,-200.47 -56.27,-302.94 -14.07,-101.66 -23.08,-206.16 -25.75,-313.36l-0.06 -5.17c-2.47,-142.01 2.32,-278.42 11.97,-411.02 9.31,-128.03 24.41,-265 42.41,-406.41 1.26,-9.94 3.1,-19.66 5.46,-29.14l-0.58 -0.15c1.06,-4.25 3.97,-26.02 7.3,-51.08 10.73,-80.67 24.01,-180.33 55.08,-242.48 4.98,-9.97 7.27,-21.42 7.27,-33.27 0,-12.17 -2.41,-22.36 -6.65,-29.6 -2.92,-4.99 -5.92,-8.49 -8.58,-9.82 -0.9,-0.45 0.11,0.71 -2.71,0.71 -5.95,0 -13.57,2.56 -21.35,6.9 -6.69,3.73 -10.95,6.37 -11.42,7.18l-1.12 1.86 0.15 0.09c-3.15,5.25 -15.65,53.05 -30.48,113.02 -26.37,106.55 -49.5,226.76 -54.37,268.22 -1.3,11.39 -3.37,22.5 -6.11,33.32 -1.78,8.59 -5.94,40.93 -10.52,76.67 -10.24,79.84 -21.89,170.78 -39.39,220.62l0.48 0.17c-65.18,184.24 -175.72,435.55 -304.11,664.58 -106.51,190.03 -227.33,368.54 -349.55,490.76 -97.59,97.59 -255.83,97.59 -353.42,0 -27.92,-27.92 -47.84,-60.81 -59.78,-95.82 -45.1,-105.69 -74.34,-213.17 -93.43,-321.18 -18.52,-104.75 -27.69,-213.95 -33.04,-323.92l-0.23 0.02c-10.01,-150.04 -9.94,-304.31 -3.57,-459.58 5.96,-145.59 17.5,-289.5 31.37,-430.42 0.73,-18.29 3.13,-67.45 5.52,-116.61 1.89,-38.75 3.78,-77.5 3.78,-100.15 0,-10.42 0.65,-20.68 1.89,-30.77l-0.01 -1.13c0,-2.3 -0.29,-4.24 -0.79,-5.79 -20.55,17.69 -50.52,117.43 -79.11,230.92 -51.98,206.25 -66.15,442.67 -70.53,554.43l-0.15 2.92 0.15 0.01c-6.6,127.43 -6.54,256.78 2.38,386.07 8.65,125.5 25.83,249.34 53.65,369.17l1.66 7.87 0.3 -0.06c24.03,122.37 72.2,266.96 150.4,372.21 44.23,59.52 97.7,104.46 159.82,116.1 7.6,1.42 15.05,3.2 22.34,5.26l0.11 -0.37c0.86,0.24 15.39,-0.25 31.63,-0.25 22.69,0 43.51,-1.78 60.8,-5.31 15.73,-3.21 30.82,-7.94 44.2,-14.11l0.52 -0.23zm925.11 -177.41c0.78,1.49 8.64,24.35 4.18,10.96l-3.37 -11.08 -0.81 0.12zm-1301.02 -1850.42l-0.82 -0.18 0.82 0.18zm4181.26 1669.71c-2.71,-31.19 -4.9,-58.74 -6.55,-79.52l-2.05 -25.42 -0.53 -9.1c-7.23,-97.41 -17.33,-228.57 -27.29,-358.35l-0.74 -9.62c-9.37,-125.83 76.26,-236.82 196.25,-262.57 257.02,-56.41 530.18,-177.5 749.71,-353.44 179.52,-143.87 321.16,-322.92 382.49,-529.68l2.56 -8.15c36.5,-121.32 52.27,-252.86 44.84,-382.64 -6.96,-121.56 -34.63,-240.01 -85.12,-344.59 -2.27,-4.71 -4.37,-9.47 -6.32,-14.25 -52.33,-112.22 -139.94,-196.06 -245.1,-254.24 -134.48,-74.41 -299.35,-108.85 -461.87,-108.85 -198.25,0 -425.73,40.7 -644.31,110.28 -78.18,24.88 -155.03,53.34 -228.81,84.82 90.4,16.91 167.97,83.36 194.49,177.89 6.31,22.48 9.31,45.11 9.32,67.36l0.45 0c0,15.46 -2.17,39.15 -4.34,62.92 -0.21,2.36 -0.43,4.74 -0.43,18.01 0,15.27 -1.37,30.21 -4,44.73 -20.42,234.68 -33.85,472 -38.53,709.74 -4.43,225.43 -0.63,453.6 12.99,682.87 2.3,39.08 -4.54,76.59 -18.65,110.45 22,34.98 34.55,74.37 37.49,114.42 15.68,112.19 64.87,351.67 144.06,556.93zm491.36 -118.57c6.24,78.55 21.68,272.78 28.11,292.07 16.06,48.22 23.46,94.11 23.46,137.07 0,98.28 -34.4,188.5 -90.42,261.32 -53.01,68.88 -127.43,121.65 -211.01,149.51 -44.7,14.89 -90.14,22.93 -134.44,22.93 -228.75,0 -392.83,-177.77 -508.39,-416.62 -119.07,-246.09 -196.47,-579.48 -227.53,-762.75 -37.58,-58.33 -59.66,-124.78 -65.31,-192.64 -5.4,-64.73 4.19,-131.52 29.55,-194.27 -10.85,-213.82 -13.5,-432.01 -9.17,-652.48 3.27,-166.61 10.72,-333.47 21.77,-499.83 -16.1,3.29 -32.75,5.02 -49.81,5.04l-6.54 1.73 -0.12 -0.47c-130.38,36.11 -248.51,7.12 -340.12,-58.33 -55.89,-39.94 -100.32,-93.29 -130.08,-153.24 -28.97,-58.37 -44.36,-124.86 -43.03,-192.73 2.33,-117.91 53.1,-235.58 167.34,-319.34l0.15 0.21 9.19 -6.5c3.33,-3.56 6.77,-7.06 10.35,-10.46 7.73,-7.39 15.24,-14.61 28.69,-25.88 8.07,-7.55 16.72,-14.65 25.96,-21.22 201.18,-142.94 458.48,-264.11 725.63,-349.16 268.91,-85.61 549.44,-135.67 794.67,-135.67 238.35,0 487.92,54.82 702.04,173.29 194.8,107.78 358.46,266.67 458.29,483.04l2.06 4.13c77.22,159.96 120.47,336.83 132.79,516.05 25.19,-22.28 52.22,-41.82 80.4,-58.32 73.03,-42.76 153.96,-66.1 233.5,-66.1 124.5,0 223.84,48.28 301.28,122.28 43.51,41.57 77.99,90.4 104.54,141.44 151.38,-161.06 343.14,-273.24 584.38,-273.24 153.73,0 348.79,66.59 499.53,171.05 80.71,55.92 152.08,124.42 204.35,202.67 21.99,-34.22 47.19,-66.7 76.28,-95.79 18.86,-18.86 37.46,-32.16 56.03,-45.41 0.22,-0.16 0.22,-0.12 0.04,0.06l0.37 0.52c4.07,-3.72 8.28,-7.34 12.65,-10.83 49.46,-39.57 100.65,-66.55 152.48,-83.42 52.88,-17.23 104.79,-24.6 155.09,-24.6 161.62,0 284.36,67.48 370.84,172.27 77.42,93.79 117.9,214.52 125.37,336.07 13.04,-50.26 27.88,-99.22 44.78,-145.7 1.44,-4.65 3.02,-9.29 4.76,-13.91 98.07,-261.14 261.57,-453.47 530.15,-453.47 149.15,0 272.38,63.36 360.76,161.95 83.07,92.67 131.4,216.05 136.3,342.79 27.36,-46.77 56.83,-92.81 88.97,-137.91 22.19,-50.44 48.5,-85.76 74.25,-120.37 3.6,-4.83 7.12,-9.56 12.6,-17.24l0.12 0.08c4.79,-6.72 9.96,-13.27 15.51,-19.6 56.84,-64.96 125.47,-115.68 199.9,-150.13 77.37,-35.82 161.05,-54.8 244.62,-54.8 198.68,0 343.37,83.75 447.36,210.34 11.84,-11.59 23.94,-22.88 36.34,-33.82 128.98,-113.79 284.44,-190.81 468.41,-190.81 220.88,0 403.15,91.09 543.96,230.76 139.52,138.4 234.47,325.77 281.19,513.08 79.89,-194.38 192.71,-377.29 345.61,-514.71 168.99,-151.9 380.97,-248.17 643.02,-248.17 222.3,0 459.2,80.75 633.6,227.55 166.33,140 278.06,336.53 278.06,579.37l-0.75 0c2.38,92.88 -10.03,185.29 -35.1,273.02 -26.14,91.55 -66.46,180.42 -118.43,261.61l-0.45 -0.29c-70.1,109.58 -160.17,208.85 -262.65,291.04 -102.56,82.26 -219.26,149.28 -342.69,194.44l-0.14 -0.38 -6.69 2.33c-44.27,14.75 -89.78,26.74 -135.72,35.8 4.24,6.02 8.78,11.72 13.63,17.03 18.03,19.82 45.87,36.07 78.09,47.82 40.94,14.93 85.17,21.41 125.45,18.73l0.02 0.25 3.88 -0.25c117.18,-6.17 248.46,-57.89 376.83,-109.76 4.02,-1.88 8.11,-3.67 12.27,-5.36 30.01,-12.14 -43.62,17.71 49.76,-19.65 54.69,-21.88 109.43,-32.83 164.16,-32.83 57.83,0 112,11.93 160.97,33.09 -12.4,-134.79 -16.89,-272.44 -14.8,-411.51 2.62,-173.12 14.86,-338.86 34.3,-496.85l0.51 0.06c5.69,-52.71 13.22,-101.71 22.13,-147.12 8.52,-43.37 19.62,-89.66 32.57,-137.54 2.37,-11.95 5.63,-23.86 9.85,-35.68 14.62,-40.9 33.12,-86.61 58.68,-135.17 28.9,-54.95 64.52,-107.91 109.38,-152.77 18.87,-18.87 37.46,-32.16 56.03,-45.41 0.22,-0.16 0.22,-0.12 0.05,0.06l0.36 0.52c4.07,-3.72 8.28,-7.34 12.65,-10.83 49.47,-39.58 100.67,-66.56 152.49,-83.42 52.86,-17.23 104.77,-24.6 155.08,-24.6 161.62,0 284.37,67.49 370.84,172.27 40.97,49.63 71.58,106.79 92.45,167.63 5.12,-18.1 10.85,-36.29 17.31,-54.54 20.82,-58.86 48.97,-116.37 87.55,-170.4 44.24,-64.33 101.55,-116.59 164.77,-153.6 73.03,-42.76 153.98,-66.1 233.5,-66.1 124.51,0 223.85,48.29 301.28,122.28 43.51,41.57 78,90.4 104.54,141.44 151.4,-161.06 343.15,-273.24 584.38,-273.24 153.73,0 348.79,66.59 499.53,171.05 120.75,83.68 220.6,195.46 266.88,326 85.6,-129.91 192.32,-250.82 319.74,-342.23 148.52,-106.52 322.96,-173.87 522.93,-173.87 45.23,0 91.97,3.78 140.07,13.22 31.68,6.21 63.82,15.24 96.37,27.66 26.74,2.6 53.73,6.93 80.91,12.59 29.63,6.17 60.32,14.71 91.59,24.63 7.17,1.67 14.33,3.66 21.45,6.01 241.35,79.48 437.21,251.55 577.59,462.14l-0.45 0.3 0.45 0.67c149.57,224.37 238.04,498.27 250.2,747.86l0 0.98c8.31,188.22 -13.78,376.19 -64.16,556.29 -50.19,179.38 -127.76,350.52 -230.66,506.01 -2.29,3.62 -4.67,7.2 -7.16,10.74 -102.43,145.91 -237.16,286.3 -396.8,386.08 -145.97,91.24 -311.74,148.8 -492.77,148.8 -92.54,0 -187.15,-13.1 -278.8,-39.29 -82.74,-23.64 -164.23,-59.02 -240.82,-106.2l-5.23 -2.94c-200.43,-116.18 -365.85,-278.69 -484.63,-469.34 -116.62,-187.16 -188.59,-401.96 -204.99,-627.2l-0.88 -8.97c-13.78,-173.73 2.08,-351.93 42.94,-524.66l6.02 -24.67c-36.06,15.07 -74.46,25.89 -114.52,31.82 -9.58,1.41 -20.88,2.54 -33.95,3.36l-10.04 0.93c-55.25,3.95 -109.88,0.27 -162.95,-10.08 -27.78,-5.42 -55.35,-12.77 -82.53,-21.89 -15.61,38.05 -29.92,78.28 -43.96,117.74l-7 19.62 -0.22 -0.08c-54.26,169.47 -99.29,343.42 -144.31,517.32 -63.63,245.78 -127.28,491.59 -219.22,738.69l-0.23 -0.08 -0.75 2.04c-42.31,109.98 -114.14,200.84 -203.87,264.08 -92.09,64.93 -202.36,101.71 -318.89,101.71 -127.16,0 -248.36,-44.8 -348.52,-118.15 -94.03,-68.89 -170.65,-165.14 -215.79,-273.8l-3.12 -6.94c-4.5,-10.44 -8.87,-21.4 -13.1,-32.83 -23.24,88.49 -65.23,169.28 -125.21,234.72 -90.24,98.46 -213.04,158.92 -365.4,158.92 -278.91,0 -435.96,-152.3 -528.78,-344.27 -15.2,16.93 -32.15,33.18 -50.96,48.63l-0.08 -0.09c-140.65,117.17 -282.39,225.75 -440.76,307.29 -173.61,89.39 -361.81,145.54 -578.98,145.54 -324,0 -609.82,-121.42 -824.83,-321.67 -101.87,-94.87 -187.35,-207.37 -252.9,-332.85 -24.55,82.06 -61.37,166.03 -114.19,237.03 -89.23,119.93 -214.87,203.27 -388.6,203.27 -156.4,0 -280.03,-70.29 -370.25,-174.52 -84.3,-97.37 -135.38,-227.59 -151.3,-348.75 -1.64,-8.86 -2.83,-17.89 -3.51,-27.07 -9.97,-129.63 -5.13,-259.28 0.96,-388.15 -12.97,40.27 -26.02,79.95 -38.66,117.16 -42.04,123.75 -84.84,234.51 -119.27,291 -45.88,76.84 -105.92,134.82 -174.61,174.76 -75.52,43.9 -158.72,65.17 -243.05,65.17 -97.13,0 -196.11,-29.71 -281.35,-86.54 -53.1,-35.39 -101,-81.21 -139.88,-136.75 -44.29,114.16 -85.58,217.63 -103.86,257.36 -35.28,81.51 -81.39,169.38 -141.35,247.57 -72.87,95.02 -165.5,175.9 -283.48,220.66l-0.2 -0.53c-54.91,20.97 -111.88,33.49 -167.08,37.53 -57.3,4.18 -115.85,-0.13 -171.41,-12.96l0.1 -0.45c-5.58,-1.28 -11.15,-2.74 -16.71,-4.43 -202.09,-61.33 -340.74,-197.28 -437.09,-361.01 -36,-61.16 -65.53,-125.56 -89.94,-190.4 -23.98,82.16 -64.43,157.13 -120.74,218.55 -90.25,98.46 -213.04,158.92 -365.4,158.92 -542.85,0 -624.17,-576.77 -668.49,-900.44 -1.32,-6.57 -2.39,-13.25 -3.19,-20.01 -19.93,-164.48 -27.35,-333.81 -24.77,-505.3 1.6,-105.97 6.81,-209.17 15.07,-309.53 -41.32,19.36 -86.01,33.04 -132.99,40 -9.58,1.41 -20.88,2.54 -33.95,3.36l-10.04 0.93c-55.25,3.95 -109.88,0.27 -162.95,-10.08 -27.78,-5.42 -55.35,-12.77 -82.53,-21.89 -15.61,38.05 -29.92,78.28 -43.96,117.74l-7 19.62 -0.22 -0.08c-54.26,169.47 -99.29,343.42 -144.31,517.32 -63.63,245.78 -127.28,491.59 -219.22,738.69l-0.23 -0.08 -0.75 2.04c-42.31,109.98 -114.14,200.84 -203.87,264.08 -92.1,64.93 -202.37,101.71 -318.89,101.71 -127.17,0 -248.36,-44.8 -348.52,-118.15 -94.03,-68.89 -170.65,-165.14 -215.79,-273.8l-3.12 -6.94c-64.85,-150.34 -101.03,-406.34 -121.29,-659.86 -17.17,-214.9 -23.57,-446.29 -26.34,-588.03 -0.93,-8.73 -1.41,-17.6 -1.41,-26.57 0,-26.84 0.13,-54.44 0.45,-83.02 -99.93,150.41 -226.51,283.42 -369.22,397.79 -221.89,177.83 -484.4,311.67 -744.77,395.54l12.19 162.69 2.73 32.65zm-1189.66 -1851.56l-0.98 0.22c1.5,-0.28 2.66,-0.48 0.98,-0.22zm666.06 -119.8c1.71,-40.73 2.8,-62.07 3.89,-83.28 4.24,-82.75 8.56,-166.84 5.47,-240.87 -5.18,-132.23 93.69,-244.43 223.58,-257.61l-0.01 -0.14c49.05,-5.16 98.52,-9.06 148.37,-11.68 57.63,-3.03 107.1,-4.55 148.37,-4.55 104.85,0 229.57,11.7 348.17,54.3 146.34,52.56 273.72,147.3 340.24,311.38l3.05 7.96c52.85,132 73.05,276.07 62.15,415.76 -11.31,144.86 -55.76,287.5 -131.63,410.02l0.27 0.17c-73.4,119.28 -171.43,219.15 -280.91,304.63 -101.77,79.46 -210.18,144.01 -315.59,199.36 -6.35,3.34 -12.78,6.37 -19.26,9.11 -43.21,21.38 -91.01,44.15 -146.98,70.76l0.18 0.38 -61.71 29.37c-124.55,59.3 -273.62,6.41 -332.92,-118.14 -16.54,-34.72 -24.33,-71.34 -24.3,-107.39 -0.1,-147.82 3.87,-317.27 9.81,-497.55 5.72,-173.89 12.69,-331.55 19.63,-489.11l0.16 -2.88zm501.79 -57.88l-4.05 82.24c-7.33,166.16 -14.67,332.26 -19.63,483.25l-2.1 68.4c30.87,-19.88 60.58,-40.65 88.43,-62.39 64.25,-50.17 120.97,-107.43 161.81,-173.8l0.28 0.17 0.7 -1.15c33.28,-53.56 52.93,-117.88 58.14,-184.65 5.15,-66.09 -3.49,-132.35 -26.63,-191.13l-3.44 -8.05c-4.88,-12.04 -22.72,-22.06 -45.38,-30.19 -50.37,-18.09 -118.49,-23.06 -180.25,-23.06l-25.83 0.09 -2.04 40.28zm1893.96 2255.41c82.16,-220.78 142.88,-455.35 203.61,-689.88 47.63,-184 95.28,-368.03 154.3,-551.41l2.27 -6.73 -0.32 -0.11 7 -19.62c54.12,-152.09 111.03,-311.97 242.86,-450.07 82.77,-87 213.38,-101.09 311.61,-40.32 22.46,12.69 35.48,20.82 48.39,28.88 18.99,11.87 37.69,23.54 45.92,27.2l2.79 1.29 0.14 -0.31c3.56,1.64 7.16,3.17 10.81,4.58 -10.87,-8.97 -23.35,-18.31 -36.92,-27.7 -71.58,-49.61 -156.08,-81.24 -216.4,-81.24 -98.81,0 -186.87,68.45 -260.95,160.97 -97.51,121.77 -170.02,281.12 -219.8,413.88 -47.98,128.87 -191.36,194.43 -320.22,146.45 -93.74,-34.9 -153.98,-120.3 -161.38,-213.86l-0.69 0.05c-1.36,-16.78 -4.64,-63.55 -7.87,-109.82 -7.96,-114.09 -15.96,-228.6 -36.06,-327.49 -7.49,22.31 -13.32,48.08 -18.09,75.14l-1.35 7.09c-9.38,78.21 -15.28,160.45 -18.92,244.54 -3.4,78.28 -4.38,174.65 -4.38,276.68 0,5.7 -0.21,11.35 -0.58,16.95 2.49,126.23 8.63,336.35 26.37,558.61 16.64,208.23 42.37,409.29 82.24,501.7 2.56,5.97 4.88,11.98 6.94,18.02 10.06,22.12 26.99,42.34 47.96,57.69 17.39,12.73 36.25,20.51 53.68,20.51 11.87,0 22.89,-3.61 31.87,-9.94 11.02,-7.77 19.91,-18.64 25.36,-31.66l-0.17 -0.06zm2003.11 -2856.14c0.19,-25.57 -4.63,-81.97 -11.69,-140.03l-0.75 -6.11c-3.99,20.8 -7.13,43.44 -9.78,65.94 -0.52,4.57 -1.17,9.09 -1.93,13.57 -5.51,39.39 -9.96,78.49 -9.6,109.7 0.24,21.28 2.21,39.7 7.26,51.69 2.21,5.25 4.21,10.54 6.04,15.86l1.31 2.62c12.04,-25.63 17.92,-57.99 17.92,-88.44 0,-8.37 0.42,-16.64 1.22,-24.79zm484.28 -198.62c9.51,78.09 15.34,164.56 14.31,218.97l0.06 4.44c0,133.97 -42.34,290.83 -129.61,407.7 -88.21,118.12 -216.1,199.28 -386.93,199.28 -89.72,0 -179.61,-25.67 -257.83,-74.34 -66.28,-41.23 -124.15,-99.64 -166.18,-173.58 -11.52,-17.85 -20.87,-37.43 -27.65,-58.44 -9.07,-18.23 -17.97,-36.95 -25.06,-60.87 -26.1,-71.15 -36.18,-144.58 -37.04,-217.56 -0.76,-66.49 5.57,-127.14 13.43,-183.41l0.04 -0.38c12.7,-108.01 36.88,-227.24 98.66,-332.09 82.33,-139.72 210.62,-237.05 415.92,-237.05 88.86,0 176.57,23.73 253.93,71.21 66.9,41.05 124.48,99.15 166.58,174.17 7.38,11.72 13.88,24.19 19.36,37.41 20.54,49.31 37.47,137.9 48.01,224.55zm-490.28 3019.88c-0.41,-62.37 -14.63,-129.75 -29.5,-200.25l-3.3 -15.84 -0.39 0.08c-28.13,-143.24 -44.86,-291.73 -53.3,-441.79 -8.07,-143.41 -8.02,-288.87 -2.97,-432.67l0.44 -8.76 -0.44 -0.03c3.21,-48.34 14.33,-225.09 19.85,-346.8 3.14,-69.18 5.1,-126.5 3.95,-142.7 -0.42,-5.9 -0.61,-11.76 -0.61,-17.58l-0.37 0c0,-17.2 -1.32,-32.44 -4.07,-43.93 -6.79,5.25 -13.56,10.17 -20.32,15.02 -6.23,7.27 -12.28,17.02 -17.99,27.86 -9.96,18.92 -19.84,44.09 -28.89,69.33 -8.14,30.77 -16.01,64.82 -23.38,102.38 -7.62,38.81 -13.42,74.93 -16.79,107.03l-0.55 4.81 0.55 0.07c-18.63,151.42 -30.22,299.93 -32.36,442.18 -2.17,143.89 4.69,291.17 22.83,440.86l1.01 10.61c23.08,168.64 64.72,468.56 174.7,468.56 0.62,0 0.46,0.75 0,1.7l0 1.34c5.82,-7.97 9.84,-22.51 11.89,-41.5zm-392.44 -2029.72l7.98 -7.61 -0.37 -0.52c-0.86,0.93 -6.05,5.56 -8.3,7.44l0.69 0.69zm380.56 2069.88c-1.06,2.23 -3.7,5.6 -1.68,3.4l1.68 -2.06 0 -1.34zm1192.74 186.27c20.02,-7.6 41.72,-29.1 62.84,-56.64 32.69,-42.63 59.69,-95.4 81.23,-145.65l3.95 -8.77c15.49,-33.04 58.15,-140.59 102.85,-256.31 57.3,-148.29 115.72,-303.5 129.15,-343.8l2.33 -6.69 -0.38 -0.14c25.29,-69.56 53.97,-153.28 83.15,-238.99 -41.32,109.54 -81.78,220.58 -122.31,331.8l-68.23 187.54c-47.45,129.41 -190.83,195.85 -320.23,148.4 -93.49,-34.28 -154.11,-118.64 -162.67,-211.61 -44.74,-329.27 -17.45,-646.2 9.87,-963.5l8.8 -103.23c0.62,-7.49 1.58,-14.87 2.83,-22.14 3.32,-35.57 4.88,-49.19 6.47,-63.2 7.68,-67.49 15.35,-135 10.72,-185.9 -0.68,-7.54 -1,-15.03 -1.01,-22.45l-0.94 0c0,-9.09 -1.06,-17 -3.04,-23.05 -12.6,12.61 -34,62.15 -58.05,126.21l-4.12 10.21c-87.52,242.49 -104.46,598 -107.14,742.7l-0.14 4.88 0.14 0c-4.38,113.89 -4.31,228.92 3.57,345.35 7.42,109.8 22.27,219.06 47.7,327.13l2.14 10.24c21.68,99.09 53.63,205.94 103.44,290.57 35.75,60.74 81.44,110.39 140.2,132.46 5.81,0.8 12.65,0.92 20.19,0.37 10.62,-0.77 19.47,-2.39 25.72,-4.79l1.18 -0.44 -0.2 -0.54zm589.49 -1371.55c64.64,-79.29 174.38,-113.59 276.41,-77.61 105.54,37.22 170.34,138.22 166.4,244.47 1.33,54.69 1.12,111.14 0.91,167.54 -0.32,85.93 -0.65,171.87 5.64,253.4l0.17 -0.06c11.56,29.87 23.06,59.83 28.98,101.28l1.29 10.85c5.72,30.27 21.86,71.63 37.07,110.58 1.5,3.83 2.88,7.67 4.18,11.52 2.51,5.4 5.73,9.24 9.11,11.5l0.31 0.2c11.75,-21.48 38.77,-96.5 70.12,-188.81 65.95,-194.13 133.45,-421.41 153.42,-489.87l3.63 -11.47 -0.7 -0.24 12.21 -35.48c28.96,-84.23 58.36,-169.73 92.38,-256.1 -64.35,28.73 -140.42,30.11 -208.97,-2.67 -80.82,-38.65 -131.23,-115.25 -140.14,-198.24l-0.45 0.05c-9.26,-87.12 -30.89,-178.43 -73.53,-232.12 -14.23,-17.93 -34.83,-29.89 -64.09,-29.89 -12.29,0 -24.51,2.75 -35.7,7.93 -10.37,4.8 -19.94,11.24 -28.14,19.1l-8.61 11.59c-5.31,7.13 -9.76,11.88 -12.94,15.39 -10.61,33.56 -28.12,64.05 -50.86,89.83 -48.27,66.89 -90.55,141.43 -129.34,219.98 -37.56,76.07 -73.45,160.81 -108.74,247.34zm449.35 587.81l0.48 6.03 0.11 -0.02c1.08,7.58 -0.5,-5.04 -0.42,-6.07l-0.17 0.06zm904.41 -1211.8c34.97,12.86 63.73,35.66 92.06,59.17 24.57,17.23 45.26,38.39 61.64,62.16l0.2 -0.14c72.95,105.38 85.19,204.79 96.57,297.69 3.04,24.59 0.53,7.7 -0.66,0.08l-0.19 0.02 4.18 32.64 0.19 -0.02c4.94,46.95 8.66,177.94 10.67,314.13 2.28,154.06 2.47,316.08 -0.18,366.63l-0.31 4.92c-1.73,62.32 -4.12,111.63 -6.49,161.14 -5.9,122.45 -11.85,245.8 -2.72,364.45l0.37 5.99c3.67,24.53 11.75,48.92 23.93,68.05 24.94,-41.89 38.97,-104.18 45.27,-156.2 11.82,-99.29 19.8,-194.7 25.21,-287.26 6.2,-106.1 9.73,-204.08 11.9,-297.68 2.23,-105.1 3.34,-210.57 -2.37,-317.44 -5.27,-98.47 -16.44,-194.69 -38.4,-286.55l-1.34 -5.99 -0.61 0.13c-24.26,-113.86 -76.55,-226.47 -153.75,-303.05 -45.18,-44.82 -100.66,-75.95 -165.18,-82.87zm249.81 418.97c-0.54,-3.43 -0.81,-4.96 -0.19,0.02l0.19 -0.02zm31.11 1331.42c-0.27,0.03 0.01,0.05 1.19,0.05 3.79,0 2.01,-0.02 -1.19,-0.05zm1833.93 168.81c-22.63,2.78 -45.63,4.87 -69.01,6.19l0.01 0.22c-107.06,7.13 -222.9,-9.5 -328.51,-48.01 -105.27,-38.4 -203.13,-99.05 -277.26,-180.6 -71.23,-78.02 -120.05,-171.38 -151.64,-270.7 -33.76,-106.11 -47.07,-215.37 -47.07,-316.16 0,-130.73 100.38,-238.01 228.27,-248.98 -60.05,-27.15 -109.29,-77.92 -132.69,-145.06 -18.17,-52.14 -17.99,-106.21 -2.89,-155.22 31.44,-101.44 80.98,-221.56 151.58,-312.92 82.05,-106.18 189.58,-178.01 329.39,-178.01 28.31,0 56.32,3.47 85.78,10.42 21.73,5.11 44.25,12.59 68.85,22.41 107.23,42.98 168.17,152.09 154.75,261.59l0.49 0.06c-14.16,113.25 -84.7,222.91 -174.19,311.02 -78.88,77.64 -181.41,146.41 -267.16,182.61 29.39,-4.78 57.85,-11.52 84.72,-20.06l-0.09 -0.25c70.83,-25.91 139.03,-65.36 200.15,-114.38 62.47,-50.1 115.91,-108.36 155.71,-170.66l0.45 -0.69 -0.45 -0.29c25.09,-39.21 44.81,-82.98 57.9,-128.83 12.57,-43.97 18.7,-87.64 17.3,-128.53l-0.11 -7.81 -0.87 0c0,-81.41 -39.56,-149.07 -98.42,-198.62 -83.11,-69.95 -200.45,-108.44 -313.37,-108.44 -125.98,0 -227.89,46.29 -309.13,119.31 -116.04,104.28 -198.79,261.34 -253.99,426.55l0.58 0.19c-41.85,127.76 -72.22,260.64 -86.93,393.7 -13.43,121.58 -14.01,242.48 1.48,358.61l0.79 6.86 0.19 -0.02c20.24,197 106.63,370.57 238.1,493.02 124.96,116.38 292.91,186.95 485.08,186.95 91.07,0 174.21,-16.76 252.22,-45.47zm1365.22 -2971.35c0.19,-25.57 -4.63,-81.97 -11.69,-140.03l-0.75 -6.11c-3.99,20.8 -7.13,43.44 -9.78,65.94 -0.52,4.57 -1.17,9.09 -1.93,13.57 -5.51,39.39 -9.96,78.49 -9.6,109.7 0.24,21.28 2.21,39.69 7.26,51.69 2.21,5.25 4.22,10.54 6.04,15.86l1.31 2.62c12.04,-25.63 17.92,-57.99 17.92,-88.44 0,-8.37 0.42,-16.64 1.22,-24.79zm484.28 -198.62c9.51,78.09 15.34,164.56 14.31,218.97l0.06 4.44c0,133.97 -42.34,290.83 -129.61,407.7 -88.21,118.11 -216.09,199.28 -386.93,199.28 -89.71,0 -179.61,-25.67 -257.83,-74.34 -66.27,-41.23 -124.14,-99.63 -166.17,-173.57 -11.52,-17.86 -20.88,-37.43 -27.66,-58.46 -9.07,-18.22 -17.97,-36.95 -25.06,-60.88 -26.09,-71.14 -36.18,-144.57 -37.04,-217.54 -0.76,-66.49 5.57,-127.14 13.43,-183.41l0.04 -0.38c12.71,-108.01 36.87,-227.23 98.66,-332.09 82.35,-139.71 210.62,-237.05 415.92,-237.05 88.87,0 176.57,23.74 253.93,71.21 66.91,41.06 124.48,99.15 166.59,174.17 7.37,11.72 13.87,24.19 19.35,37.41 20.55,49.32 37.47,137.9 48.01,224.55zm-490.28 3019.88c-0.41,-62.37 -14.63,-129.75 -29.5,-200.25l-3.3 -15.84 -0.39 0.08c-28.13,-143.24 -44.86,-291.73 -53.3,-441.79 -8.06,-143.4 -8.01,-288.86 -2.97,-432.67l0.44 -8.76 -0.44 -0.03c3.21,-48.34 14.33,-225.09 19.85,-346.8 3.14,-69.18 5.1,-126.5 3.95,-142.7 -0.42,-5.9 -0.61,-11.76 -0.61,-17.58l-0.37 0c0,-17.2 -1.32,-32.44 -4.07,-43.93 -6.79,5.25 -13.56,10.17 -20.32,15.02 -6.23,7.27 -12.28,17.02 -17.99,27.86 -9.96,18.9 -19.84,44.09 -28.89,69.34 -8.14,30.77 -16.01,64.81 -23.38,102.37 -7.62,38.81 -13.42,74.93 -16.79,107.03l-0.55 4.81 0.55 0.07c-18.63,151.43 -30.21,299.93 -32.36,442.18 -2.17,143.88 4.7,291.16 22.83,440.86l1.01 10.61c23.08,168.64 64.72,468.56 174.7,468.56 0.62,0 0.46,0.75 0,1.7l0 1.34c5.82,-7.97 9.84,-22.51 11.89,-41.5zm-392.44 -2029.72l7.98 -7.61 -0.36 -0.52c-0.87,0.93 -6.06,5.56 -8.31,7.44l0.69 0.69zm380.56 2069.88c-1.06,2.23 -3.7,5.6 -1.68,3.4l1.68 -2.06 0 -1.34zm1128.2 -5.28c82.16,-220.78 142.88,-455.35 203.61,-689.88 47.63,-184 95.28,-368.03 154.3,-551.41l2.27 -6.73 -0.32 -0.11 7 -19.62c54.12,-152.09 111.04,-311.98 242.86,-450.07 82.78,-87.01 213.41,-101.09 311.63,-40.3 22.46,12.69 35.47,20.8 48.37,28.86 18.99,11.87 37.68,23.54 45.92,27.2l2.79 1.29 0.14 -0.31c3.56,1.64 7.17,3.17 10.82,4.59 -10.88,-8.98 -23.36,-18.32 -36.93,-27.71 -71.58,-49.61 -156.08,-81.24 -216.4,-81.24 -98.81,0 -186.86,68.45 -260.95,160.97 -97.51,121.77 -170.02,281.12 -219.8,413.88 -47.98,128.87 -191.36,194.43 -320.22,146.45 -93.74,-34.9 -153.98,-120.3 -161.38,-213.86l-0.69 0.05c-1.36,-16.78 -4.64,-63.55 -7.87,-109.82 -7.96,-114.09 -15.96,-228.61 -36.06,-327.49 -7.49,22.3 -13.31,48.08 -18.09,75.14l-1.35 7.09c-9.38,78.21 -15.28,160.44 -18.92,244.54 -3.4,78.28 -4.38,174.65 -4.38,276.68 0,5.7 -0.21,11.35 -0.58,16.95 2.49,126.23 8.63,336.36 26.38,558.61 16.64,208.24 42.36,409.29 82.23,501.7 2.56,5.97 4.88,11.98 6.94,18.02 10.06,22.12 26.99,42.34 47.96,57.69 17.38,12.73 36.24,20.51 53.68,20.51 11.86,0 22.88,-3.6 31.87,-9.94 11.02,-7.76 19.91,-18.64 25.36,-31.66l-0.17 -0.06zm2388.71 -1824.47l-3.59 -0.02c-85.71,0 -163.53,31.06 -231.99,80.16 -98.08,70.36 -179.07,175.34 -240.59,286.07l-1.5 2.63 0.53 0.3c-65.62,114.85 -115.55,240.7 -146.04,369.59 -29.35,124.12 -40.87,250.66 -31.22,372.36 0.36,4.64 0.59,9.26 0.7,13.86 10.67,142.22 56.62,278.43 130.97,397.75 76.42,122.67 182.54,227.05 310.86,301.43 6.51,3.77 12.77,7.8 18.8,12.05 34.03,20.34 72.66,36.47 113.99,48.29 46.08,13.17 94.32,19.75 142.12,19.75 34.68,0 68.87,-5.25 102.27,-14.81 -20.91,3.46 -42.31,5.29 -64.18,5.29 -65.75,0 -124.93,-18.08 -179.14,-45.19 -38.11,-19.03 -68.93,-40.42 -96.85,-61.28 -101.91,-71.01 -186.08,-168.43 -247.7,-277.39 -64.28,-113.65 -106.11,-242.75 -119.42,-369.12l-0.44 -4.92 -0.53 0.04c-8.75,-105.09 -1.76,-213.49 18.19,-320.2 20.35,-108.92 54.23,-214.8 98.5,-312.2 2.89,-6.4 6.02,-12.61 9.36,-18.64 37.5,-78.67 80.76,-156.68 133.25,-229.62 61.44,-85.38 134.06,-162.55 222.23,-224.6 19.4,-13.65 40.08,-24.14 61.41,-31.58zm10.93 1264.81c25.83,45.68 57.63,84.68 93.19,111.08 -0.56,-6.38 0.59,-14.05 7.23,-22.49 63.69,-80.98 112.72,-186.37 131.37,-250.05 1.35,-6.41 2.95,-12.82 4.83,-19.21 18.71,-63.63 29.66,-130.8 30.26,-195.76 0.48,-51.83 -5.22,-101.93 -18.38,-147l-3.22 -8.58c-20.54,-57.9 -48.02,-114.37 -82.46,-160.69 -12.19,-16.4 -25.1,-31.36 -38.68,-44.36 -4.96,6.33 -9.8,12.8 -14.54,19.37 -32.8,45.59 -61.41,97.42 -87.17,151.24 -1.47,3.72 -3.02,7.43 -4.68,11.11 -28.85,63.47 -50.66,130.99 -63.35,198.95 -11.56,61.84 -15.57,125.27 -10.39,187.42l-0.42 0.03c6.74,57.02 26.41,115.96 56.38,168.94zm3060.76 754.85c15.7,-41.87 32.37,-116.35 50.18,-212.71 17.32,-93.76 37.73,-226.4 59.93,-374.44 14.83,-101.4 88.69,-179.58 181.66,-204.84 -67.76,-42.42 -113.94,-116.62 -116.97,-202.51 -0.53,-14.93 0.28,-29.59 2.29,-43.89l-0.34 -0.05c19.84,-137.86 40.36,-278.38 61.65,-415.91 -32.3,169.97 -63.1,342.27 -92.29,508.3 -11.36,65.03 -46.93,119.76 -95.81,156.55 34.6,51.84 49.73,116.35 38.3,181.38l0.39 0.07 -2.67 15.13c-42.02,238.09 -78.99,447.58 -114.12,603.64 7.29,-2.65 14.18,-5.74 20.5,-9.27 5.13,-2.86 3.11,10.86 5.34,4.41l2.08 -5.81 -0.13 -0.05zm540.28 -122.9c-22.65,122.59 -46.47,224.3 -73.61,296.67l-0.11 -0.04c-42.7,118.29 -128.08,205.38 -231.74,263.14 -102.41,57.06 -224.9,85.61 -334.73,85.61 -58.07,0 -117.29,-8.57 -172.91,-25.68 -72.26,-22.24 -137.46,-59.7 -188.14,-112.87 -63.51,-66.69 -101.02,-150.36 -101.02,-250.93 0,-31.73 4.46,-65.4 13.9,-100.99 1.24,-5.47 2.65,-10.93 4.28,-16.39 28.88,-96.3 62.46,-270.79 101.15,-486.33 -6.29,-2.12 -11.86,-4.13 -16.6,-6.03 -171.28,-65.85 -251.24,-203.23 -261.42,-346.96 -3.96,-55.94 3.76,-112.31 21.59,-164.72 18.06,-52.97 46.46,-102.6 83.64,-144.44 75.86,-85.33 183.56,-140.71 311.37,-134.3 58.65,-324.5 124.25,-662.5 198.88,-967 97.71,-398.64 213.23,-732.78 353.83,-897.32 79.85,-93.15 173.47,-163.77 275.08,-211.7 107.5,-50.74 222.32,-76.11 338.02,-76.11 260.68,0 463.47,110.46 616.12,276.92 169.57,184.89 269.95,439.23 314.46,674.54l-0.18 0.03c47.35,231.06 70.53,461.23 83.96,690.98 5.39,-26.67 11.23,-53.31 17.57,-79.68 79.95,-332.67 241.16,-624.95 562.88,-624.95 198.74,0 322.12,97.63 398.61,234.8 37.86,67.9 59.53,142.36 71.72,214.33 186,-255.89 411.04,-449.13 667.44,-449.13 76.68,0 156.57,15.15 231.03,42.58 72.93,26.85 142.74,66.82 201.37,117.17 145.26,118.91 242.92,249.64 307.84,397.25l6.91 16.08c2.1,-8.79 4.67,-17.55 7.78,-26.25 14.62,-40.9 33.12,-86.61 58.68,-135.17 28.9,-54.95 64.52,-107.91 109.38,-152.77 18.87,-18.87 37.46,-32.16 56.03,-45.41 0.22,-0.16 0.22,-0.12 0.05,0.06l0.36 0.52c4.07,-3.72 8.28,-7.34 12.65,-10.83 49.47,-39.58 100.67,-66.56 152.49,-83.42 52.86,-17.23 104.77,-24.6 155.08,-24.6 161.62,0 284.37,67.49 370.84,172.27 76.29,92.43 116.71,210.99 125.02,330.74 82.11,-321.43 243.16,-598.22 556.24,-598.22 198.74,0 322.12,97.63 398.61,234.8 37.86,67.9 59.53,142.36 71.72,214.33 186,-255.89 411.04,-449.13 667.44,-449.13 76.68,0 156.57,15.15 231.03,42.58 72.93,26.85 142.74,66.82 201.37,117.17 127.92,104.71 218.92,218.6 283.15,345.1 2.09,-29.83 4.31,-59.42 6.66,-88.78 12.25,-160.79 48.98,-513.66 120.68,-812.62 49.75,-207.4 120.66,-394.91 221.08,-502.97l2.57 -2.93c45.87,-50.97 99.49,-87.59 157.22,-112.08l0.15 0.36 0.83 -0.36c61.39,-26.03 124.06,-37.56 184.4,-37.56 163.35,0 281.5,69.87 364.67,175.86 82.5,105.15 118.97,242.17 127.08,367.89l-0.23 0.01c7.13,100.29 -14.74,370.31 -29.93,558.08l-11.85 147.72c0,6.82 -0.27,13.69 -0.84,20.6 -6.41,76.19 -12.49,152.06 -18.02,227.28 53.14,-88.33 115.3,-178.08 186.21,-258.66 160.4,-182.26 364.56,-319.98 615.9,-319.98 171.86,0 321.85,76.09 438.3,193.85 112.97,114.22 194.67,271.75 229.46,431.81l-0.52 0.11c14.54,64.93 25.17,129 33.05,192.44 17.06,-34.65 35.11,-68.67 54.13,-101.95l0.51 0.29c94.11,-168.71 222.25,-331.74 383.59,-447.47 148.52,-106.52 322.96,-173.87 522.93,-173.87 45.23,0 91.97,3.78 140.07,13.22 31.68,6.21 63.82,15.24 96.37,27.66 26.74,2.6 53.73,6.93 80.91,12.59 29.63,6.17 60.32,14.71 91.59,24.63 7.17,1.67 14.33,3.66 21.45,6.01 241.35,79.48 437.21,251.55 577.59,462.14l-0.45 0.3 0.45 0.67c149.57,224.37 238.04,498.27 250.2,747.86l0 0.98c8.31,188.22 -13.78,376.19 -64.16,556.29 -50.19,179.38 -127.76,350.52 -230.66,506.01 -2.29,3.62 -4.67,7.2 -7.16,10.74 -102.43,145.91 -237.16,286.3 -396.8,386.08 -145.97,91.24 -311.74,148.8 -492.77,148.8 -92.54,0 -187.15,-13.1 -278.8,-39.29 -82.74,-23.64 -164.23,-59.02 -240.82,-106.2l-5.23 -2.94c-200.43,-116.18 -365.85,-278.69 -484.63,-469.34 -13.17,-21.12 -25.75,-42.6 -37.76,-64.4 -11.83,98.22 -27.07,180.81 -46.64,235.33 -37.63,109.06 -103.9,200.88 -186.89,266.39 -91.74,72.42 -202.62,113.81 -318.78,113.81 -236.14,0 -377.49,-120.6 -459.82,-288.75 -57.6,-117.66 -77.27,-252.39 -80.14,-371.92l-16.91 53.82c-2.28,9.61 -5.13,19.17 -8.61,28.67 -8.14,22.09 -20.72,58.81 -33.28,95.43l-0.3 -0.1c-18.64,54.46 -37.51,109.41 -63.71,173.33 -1.7,5.11 -3.55,10.2 -5.6,15.26 -46.86,115.37 -117.36,231.92 -220.25,319.52 -97.93,83.35 -217.8,136.59 -363.42,136.59 -381.75,0 -586.84,-292.77 -696.42,-645.25 -21.28,-68.47 -38.78,-139.36 -53.2,-210.14 -26.66,173.16 -70.62,342.65 -148.35,431.47l-0.12 -0.11c-46.82,54.85 -100.39,94.82 -157.56,121.82 -65.79,31.04 -134.16,45.14 -201.16,45.14 -251.19,0 -389,-137.34 -465.66,-319.3 -55.63,-132 -67.91,-276.64 -73.68,-389.23l0.31 -0.02 -0.31 -8.77c-1.65,-87.23 0.48,-170.71 4.62,-252.06 -66.16,176.54 -122.66,349.63 -168.97,500.06 -8.92,32.64 -16.69,64.41 -24.48,96.27 -29.28,119.69 -58.91,240.75 -121.33,361.12l-0.4 -0.2c-44.06,86.91 -111.38,162.18 -190.97,214.73 -83.2,54.95 -180.91,87.8 -282.56,87.8 -216.72,0 -365.19,-102.85 -469.07,-247.87 -63.33,-88.43 -105.52,-191.38 -135.3,-290.47 -24.5,65 -59.99,124.41 -106.11,174.72 -90.24,98.46 -213.04,158.92 -365.4,158.92 -377.92,0 -532.13,-279.56 -605.92,-558.65 -27.28,125.93 -66.72,239.03 -125.43,306.11l-0.12 -0.11c-46.82,54.85 -100.39,94.82 -157.56,121.82 -65.79,31.04 -134.16,45.14 -201.16,45.14 -251.19,0 -389,-137.34 -465.66,-319.3 -55.63,-132 -67.91,-276.64 -73.68,-389.23l0.31 -0.02 -0.31 -8.77c-1.65,-87.23 0.48,-170.71 4.62,-252.06 -66.16,176.54 -122.66,349.63 -168.97,500.06 -8.92,32.64 -16.69,64.41 -24.48,96.27 -29.28,119.69 -58.91,240.75 -121.33,361.12l-0.4 -0.2c-44.06,86.91 -111.38,162.18 -190.97,214.73 -83.2,54.95 -180.91,87.8 -282.56,87.8 -216.72,0 -365.19,-102.85 -469.07,-247.87 -60.42,-84.38 -101.61,-181.97 -131.13,-276.82 -4.36,26.45 -9.49,52.76 -15.46,78.86 -1.06,6.13 -2.35,12.27 -3.88,18.4 -25.65,102.65 -84.17,185.93 -159.69,244.87 -80.21,62.6 -179.1,96.86 -277.62,96.86 -217.24,0 -370.01,-139.68 -472.32,-327.89 -59.77,-109.97 -102.42,-241.87 -129.1,-363.03 -13.09,0.41 -22.64,0.64 -26.98,0.64 -82.71,0 -168.82,-3.72 -256.82,-10.55l-23.8 -1.93c-8.52,51.7 -17.29,102.47 -26.54,152.6zm641.22 -640.59c66.27,26.16 120.9,80.45 145.01,153.39 8.57,25.91 12.63,52.23 12.63,78.11l1.04 0c0,91.6 32.06,266.82 100.73,393.14l5.35 9.92c5.09,-40.11 7.76,-81.09 8.55,-122.53 1.53,-79.64 -3.88,-163.76 -12.52,-248.46l-0.2 0.02c-29.7,-261.42 -37.66,-529.03 -45.59,-796.74 -10.78,-363.63 -21.59,-727.49 -93.31,-1075.53l-0.75 -3.94 -0.23 0.04c-22.14,-117.07 -62.48,-238.33 -123.6,-337.71 137.23,361.39 141.82,1051.78 145.54,1613.76l0.76 110.03c0.39,100.1 -58.36,186.63 -143.41,226.5zm-595.23 -1982.7c-12.71,22.75 -25.42,48.95 -38.14,78.29 5.9,-10.88 11.26,-22 16.74,-33.39l0.39 -0.79 -0.39 -0.19c7.02,-14.58 14.1,-29.28 21.4,-43.92zm204.06 1488.2c5.6,0 18.01,0.41 34.78,1.12 -1.61,-197.19 -4.44,-403.84 -12.51,-594.28 -35.33,182.54 -68.19,386.1 -99.19,592.13 21.59,0.2 43.36,0.62 65.36,1.31l11.56 -0.28zm1773.06 1240.16c36.34,-70.09 58.46,-160.46 80.32,-249.81 9.72,-39.7 19.4,-79.3 29.67,-116.52l1.99 -6.82c36.78,-119.67 79.53,-252.57 127.85,-389.9 -65.88,43.35 -151.21,54.83 -229.96,23.26 -98.48,-39.47 -157.93,-134.73 -156.56,-234.85 -4.54,-147.8 -4.55,-294.57 4.14,-439.28 -0.01,-19.62 5.07,-130.59 10.23,-243.56 4.26,-93.14 8.6,-188.04 8.8,-234 -1.06,-12.99 -2.44,-25.89 -4.25,-38.04 -16.45,42.84 -37.27,121.02 -57.7,206.05 -49.9,207.67 -63.11,448.19 -67.55,552.58 -6.81,163.57 -4.03,332.35 10.2,503.15 13.13,157.59 35.87,312 69.63,459.73l1.49 7c17.38,69.01 41.69,142.14 78.1,192.98 16.32,22.77 36.88,38.95 62.92,38.95 0.96,0 3.61,-1.44 7.24,-3.84 9.99,-6.6 17.95,-15.1 22.47,-24.15l1.4 -2.71 -0.42 -0.22zm988.35 -1953.72c50.79,1.95 101.45,19.36 144.46,53.18 26.3,20.68 47.32,45.6 62.86,73.01 63.04,102.81 90.92,213.83 100.86,326.69 8.39,95.13 3,190.86 -2.38,282.47l-0.3 4.2c-5.91,101.45 -11.92,174.17 -17.93,247.11 -13.39,162.44 -26.9,326.28 -24.76,473.53l0.14 -0.01c3.71,72.57 10.44,162.88 34.15,220.15 24.69,-77.7 44.26,-345.87 55.66,-502.17 1.79,-24.71 3.41,-46.56 8.33,-99.06l0.2 -1.93 -0.2 -0.02c9.04,-90.4 18.1,-180.85 24.02,-275.88 5.4,-86.48 7.69,-171.72 3.81,-254.41l-0.23 0.02c-7.67,-115.18 -25.72,-214.3 -62.81,-298.66 -34.47,-78.4 -88.03,-149.01 -169.14,-214.91l-5.84 -4.91c-12.14,-10.47 -29.28,-19.78 -49.14,-27.09 -19.83,-7.31 -40.34,-11.35 -59.19,-11.35 -13.46,0 -27.69,3.49 -42.57,10.04zm1412.46 -1079.78c0.19,-25.57 -4.63,-81.97 -11.69,-140.03l-0.75 -6.11c-3.99,20.8 -7.13,43.44 -9.78,65.94 -0.52,4.57 -1.17,9.09 -1.93,13.57 -5.51,39.39 -9.96,78.49 -9.6,109.7 0.24,21.28 2.21,39.69 7.26,51.69 2.21,5.25 4.22,10.54 6.04,15.86l1.31 2.62c12.04,-25.63 17.92,-57.99 17.92,-88.44 0,-8.37 0.42,-16.64 1.22,-24.79zm484.28 -198.62c9.51,78.09 15.34,164.56 14.31,218.97l0.06 4.44c0,133.97 -42.34,290.83 -129.61,407.7 -88.21,118.11 -216.09,199.28 -386.93,199.28 -89.71,0 -179.61,-25.67 -257.83,-74.34 -66.27,-41.23 -124.14,-99.63 -166.17,-173.57 -11.52,-17.86 -20.88,-37.43 -27.66,-58.46 -9.07,-18.22 -17.97,-36.95 -25.06,-60.88 -26.09,-71.14 -36.18,-144.57 -37.04,-217.54 -0.76,-66.49 5.57,-127.14 13.43,-183.41l0.04 -0.38c12.71,-108.01 36.87,-227.23 98.66,-332.09 82.35,-139.71 210.62,-237.05 415.92,-237.05 88.87,0 176.57,23.74 253.93,71.21 66.91,41.06 124.48,99.15 166.59,174.17 7.37,11.72 13.87,24.19 19.35,37.41 20.55,49.32 37.47,137.9 48.01,224.55zm-490.28 3019.88c-0.41,-62.37 -14.63,-129.75 -29.5,-200.25l-3.3 -15.84 -0.39 0.08c-28.13,-143.24 -44.86,-291.73 -53.3,-441.79 -8.06,-143.4 -8.01,-288.86 -2.97,-432.67l0.44 -8.76 -0.44 -0.03c3.21,-48.34 14.33,-225.09 19.85,-346.8 3.14,-69.18 5.1,-126.5 3.95,-142.7 -0.42,-5.9 -0.61,-11.76 -0.61,-17.58l-0.37 0c0,-17.2 -1.32,-32.44 -4.07,-43.93 -6.79,5.25 -13.56,10.17 -20.32,15.02 -6.23,7.27 -12.28,17.02 -17.99,27.86 -9.96,18.9 -19.84,44.09 -28.89,69.34 -8.14,30.77 -16.01,64.81 -23.38,102.37 -7.62,38.81 -13.42,74.93 -16.79,107.03l-0.55 4.81 0.55 0.07c-18.63,151.43 -30.21,299.93 -32.36,442.18 -2.17,143.88 4.7,291.16 22.83,440.86l1.01 10.61c23.08,168.64 64.72,468.56 174.7,468.56 0.62,0 0.46,0.75 0,1.7l0 1.34c5.82,-7.97 9.84,-22.51 11.89,-41.5zm-392.44 -2029.72l7.98 -7.61 -0.36 -0.52c-0.87,0.93 -6.06,5.56 -8.31,7.44l0.69 0.69zm380.56 2069.88c-1.06,2.23 -3.7,5.6 -1.68,3.4l1.68 -2.06 0 -1.34zm1106.58 172.08c36.34,-70.09 58.46,-160.46 80.32,-249.81 9.72,-39.7 19.4,-79.3 29.67,-116.52l1.99 -6.82c36.78,-119.67 79.53,-252.57 127.85,-389.9 -65.88,43.35 -151.21,54.83 -229.96,23.26 -98.48,-39.47 -157.93,-134.73 -156.56,-234.85 -4.54,-147.8 -4.55,-294.57 4.14,-439.28 -0.01,-19.62 5.07,-130.59 10.23,-243.56 4.26,-93.14 8.6,-188.04 8.8,-234 -1.06,-12.99 -2.44,-25.89 -4.25,-38.04 -16.45,42.84 -37.27,121.02 -57.7,206.05 -49.9,207.67 -63.11,448.19 -67.55,552.58 -6.81,163.57 -4.03,332.35 10.2,503.15 13.13,157.59 35.87,312 69.63,459.73l1.49 7c17.38,69.01 41.69,142.14 78.1,192.98 16.32,22.77 36.88,38.95 62.92,38.95 0.96,0 3.61,-1.44 7.24,-3.84 9.99,-6.6 17.95,-15.1 22.47,-24.15l1.4 -2.71 -0.42 -0.22zm988.35 -1953.72c50.79,1.95 101.45,19.36 144.46,53.18 26.3,20.68 47.32,45.6 62.86,73.01 63.04,102.81 90.92,213.83 100.86,326.69 8.39,95.13 3,190.86 -2.38,282.47l-0.3 4.2c-5.91,101.45 -11.92,174.17 -17.93,247.11 -13.39,162.44 -26.9,326.28 -24.76,473.53l0.14 -0.01c3.71,72.57 10.44,162.88 34.15,220.15 24.69,-77.7 44.26,-345.87 55.66,-502.17 1.79,-24.71 3.41,-46.56 8.33,-99.06l0.2 -1.93 -0.2 -0.02c9.04,-90.4 18.1,-180.85 24.02,-275.88 5.4,-86.48 7.69,-171.72 3.81,-254.41l-0.23 0.02c-7.67,-115.18 -25.72,-214.3 -62.81,-298.66 -34.47,-78.4 -88.03,-149.01 -169.14,-214.91l-5.84 -4.91c-12.14,-10.47 -29.28,-19.78 -49.14,-27.09 -19.83,-7.31 -40.34,-11.35 -59.19,-11.35 -13.46,0 -27.69,3.49 -42.57,10.04zm1690.26 1789.53c16.36,-40.9 34.09,-92.68 51.69,-144.04l0.31 -0.87 -0.31 -0.1c10.59,-30.88 21.03,-61.4 37.18,-105.21l2.73 -7.08c17.23,-54.53 34.85,-111.84 52.61,-170.13 -63.56,87.82 -179.81,126.82 -286.8,88.04 -93.33,-33.83 -154.13,-117.62 -163.19,-210.25 -27.05,-261.5 -33.19,-525.94 -27.01,-791.23 6.36,-272.79 24.1,-530.21 45.23,-781.49l0.99 -9.61c2.57,-44.2 6.73,-95.43 11.7,-156.76 14.42,-178.12 35.35,-436.73 31.13,-479.01l-0.69 -8.8 -0.28 0.02c-0.83,-12.93 -2.13,-25.58 -3.96,-37.3 -23.81,50.87 -48.44,135.29 -71.88,233.05 -62.43,260.34 -95.75,586.07 -107.02,735.48l-0.08 0.97c-14.44,181.64 -23.99,357.06 -27.29,523.31 -3.4,171.42 -1.01,345.13 8.33,520.37l0.29 9.87c6.86,161.08 26.81,432.11 97.28,658.78 49.89,160.48 120.94,293.78 219.99,293.78 16.51,0 30.12,-6.06 41.25,-15.53 31.36,-26.7 58.22,-75.42 79.65,-128.18 2.51,-6.19 5.24,-12.21 8.17,-18.09zm775.63 -1807.07c76.82,-28.03 165.87,-17.66 235.86,35.44 55.49,42.09 88.33,102.94 96.42,166.98l0.23 -0.03c21.29,166.19 -4.25,827.48 -18.59,1199.07 -3.81,98.91 -6.86,177.61 -7.87,212.75l0.82 0c0,68.14 6.12,140.94 27.79,185.21 2.15,4.4 6.03,7.59 12.68,7.59 3.07,0 6.68,-1.63 10.27,-4.46 10.48,-8.27 19.28,-21.31 24.82,-37.94l2.01 -5.83c15.46,-43.26 28.31,-178.47 38.54,-340.8 18.36,-291.61 21.94,-659.2 21.94,-784.46 0,-5.07 0.17,-10.11 0.47,-15.11 -2.03,-81.92 -4.42,-164.8 -11.39,-259.5 -6.41,-87.12 -16.68,-171.79 -34.61,-251.51l-0.44 -2.08 -0.54 0.12c-15.33,-70.52 -49.79,-138.36 -96.67,-185.78 -27.29,-27.6 -56.47,-45.45 -82.94,-45.45 -73.91,0 -149.46,52.66 -218.8,125.79zm1883.83 -30.56l-3.59 -0.02c-85.71,0 -163.53,31.06 -231.99,80.16 -98.08,70.36 -179.07,175.34 -240.59,286.07l-1.5 2.63 0.53 0.3c-65.62,114.85 -115.55,240.7 -146.04,369.59 -29.35,124.12 -40.87,250.66 -31.22,372.36 0.36,4.64 0.59,9.26 0.7,13.86 10.67,142.22 56.62,278.43 130.97,397.75 76.42,122.67 182.54,227.05 310.86,301.43 6.51,3.77 12.77,7.8 18.8,12.05 34.03,20.34 72.66,36.47 113.99,48.29 46.08,13.17 94.32,19.75 142.12,19.75 34.68,0 68.87,-5.25 102.27,-14.81 -20.91,3.46 -42.31,5.29 -64.18,5.29 -65.75,0 -124.93,-18.08 -179.14,-45.19 -38.11,-19.03 -68.93,-40.42 -96.85,-61.28 -101.91,-71.01 -186.08,-168.43 -247.7,-277.39 -64.28,-113.65 -106.11,-242.75 -119.42,-369.12l-0.44 -4.92 -0.53 0.04c-8.75,-105.09 -1.76,-213.49 18.19,-320.2 20.35,-108.92 54.23,-214.8 98.5,-312.2 2.89,-6.4 6.02,-12.61 9.36,-18.64 37.5,-78.67 80.76,-156.68 133.25,-229.62 61.44,-85.38 134.06,-162.55 222.23,-224.6 19.4,-13.65 40.08,-24.14 61.41,-31.58zm10.93 1264.81c25.83,45.68 57.63,84.68 93.19,111.08 -0.56,-6.38 0.59,-14.05 7.23,-22.49 63.69,-80.98 112.72,-186.37 131.37,-250.05 1.35,-6.41 2.95,-12.82 4.83,-19.21 18.71,-63.63 29.66,-130.8 30.26,-195.76 0.48,-51.83 -5.22,-101.93 -18.38,-147l-3.22 -8.58c-20.54,-57.9 -48.02,-114.37 -82.46,-160.69 -12.19,-16.4 -25.1,-31.36 -38.68,-44.36 -4.96,6.33 -9.8,12.8 -14.54,19.37 -32.8,45.59 -61.41,97.42 -87.17,151.24 -1.47,3.72 -3.02,7.43 -4.68,11.11 -28.85,63.47 -50.66,130.99 -63.35,198.95 -11.56,61.84 -15.57,125.27 -10.39,187.42l-0.42 0.03c6.74,57.02 26.41,115.96 56.38,168.94z"/>
  <path class="fil2" d="M2781.49 21501.73c80.93,-104.73 95.21,-476.05 95.21,-604.59 -19.04,-633.16 28.56,-1275.84 -4.76,-1909 0,-157.11 -47.61,-471.3 -80.93,-614.11 -33.33,-128.55 -123.78,-218.99 -261.84,-218.99 -104.73,0 -171.37,52.37 -238.03,128.54 -52.37,66.65 -99.97,138.05 -142.82,209.46 -261.83,447.5 -452.25,933.08 -699.8,1390.1 -109.5,-295.16 -171.38,-614.11 -328.48,-885.47 -85.69,-142.82 -214.23,-304.68 -395.13,-304.68 -99.97,0 -190.42,47.61 -252.31,133.29 -76.17,109.5 -90.45,252.31 -114.25,385.61 -47.61,290.4 -71.41,585.55 -90.46,880.71 -19.03,299.92 -28.56,599.84 -4.76,899.75 9.53,142.82 38.09,371.33 223.75,371.33 66.65,0 138.05,-38.09 166.63,-119.02 42.84,-99.97 61.88,-590.31 66.64,-704.56 14.29,-242.79 33.32,-490.35 57.12,-737.89 90.46,309.44 257.08,852.14 656.96,852.14 66.65,0 128.54,-19.04 190.43,-57.12 80.93,-47.61 133.29,-138.06 185.66,-218.99 85.69,-128.54 404.65,-856.9 471.3,-999.72 -14.29,399.89 -28.57,799.77 -28.57,1199.67 0,228.51 -14.28,471.3 66.65,685.53 42.85,133.29 114.25,333.24 285.63,333.24 66.65,0 133.29,-33.32 176.14,-95.21zm2332.69 -357.04c133.29,-109.49 42.85,-309.44 -104.73,-309.44 -23.8,0 -47.61,4.76 -71.41,14.29 -166.62,66.64 -338,142.81 -518.9,152.34 -142.82,9.52 -309.44,-42.85 -404.65,-147.58 -99.97,-109.49 -133.29,-271.36 -133.29,-418.94 119.01,14.29 247.55,0 361.8,-38.08 195.19,-71.41 371.33,-214.22 480.82,-385.61 76.17,-119.02 119.02,-261.83 114.25,-399.89 0,-347.53 -347.52,-556.99 -661.72,-556.99 -428.44,0 -676,347.53 -799.77,718.85 -90.46,276.12 -133.29,576.03 -95.21,861.67 52.37,509.38 447.5,904.52 971.16,904.52 347.53,0 604.6,-180.9 861.67,-395.13zm-847.38 -1485.3c-14.29,114.25 -195.19,261.83 -304.68,299.92 42.85,-138.06 123.78,-314.21 242.79,-314.21 19.03,0 38.08,4.77 61.88,14.29zm1999.44 1947.08c199.95,-104.73 352.29,-299.91 471.3,-490.34 23.8,90.46 47.61,176.14 85.69,261.84 57.13,119.01 166.63,233.27 304.68,233.27 71.41,0 138.06,-28.56 190.43,-76.17 90.45,-80.93 109.49,-223.75 28.56,-314.21 -9.53,-14.28 -14.29,-71.4 -19.04,-85.69 -42.85,-185.66 -71.41,-376.09 -76.17,-566.51 -4.76,-261.84 19.04,-523.67 52.37,-785.5 9.53,-38.09 23.8,-204.7 42.85,-242.79 99.97,-199.95 -28.56,-433.21 -233.27,-433.21 -95.21,0 -199.95,57.13 -247.55,138.06 -42.85,71.41 -109.49,399.88 -119.02,480.82 -9.52,38.08 -28.56,238.03 -42.84,276.11 -109.5,309.45 -357.04,823.59 -595.08,1061.61 -80.93,-180.9 -104.73,-380.85 -114.25,-580.79 -19.04,-285.63 0,-580.78 28.56,-866.43 0,-28.56 9.52,-195.18 9.52,-223.74 19.04,-161.87 -109.49,-290.4 -242.78,-290.4 -342.77,0 -395.13,785.5 -404.65,1028.29 -14.29,276.11 0,556.98 61.88,823.58 52.37,266.59 204.7,628.4 509.38,685.53 33.33,9.52 66.65,9.52 99.97,9.52 71.41,0 147.58,-14.28 209.46,-42.85zm3984.62 -333.24c-19.04,-57.12 -38.09,-318.95 -42.85,-376.08 -9.52,-128.54 -19.04,-252.31 -28.56,-376.09 542.7,-119.02 1152.06,-495.11 1318.68,-1056.86 90.45,-295.15 80.93,-637.92 -52.37,-914.03 -161.87,-361.8 -561.75,-518.9 -937.84,-518.9 -442.74,0 -1014.01,180.9 -1375.81,437.97 -23.8,19.04 -42.85,42.85 -71.41,61.89 -142.82,104.73 -33.32,333.24 138.05,280.87 19.04,-4.76 42.85,-9.53 66.65,-9.53 42.85,-9.52 204.7,-47.61 323.72,-80.93 0,28.56 -4.77,52.37 -4.77,80.93 -42.84,480.82 -57.12,971.16 -28.56,1451.98 -52.37,71.41 -42.84,171.38 19.04,228.51 28.56,223.75 204.7,1033.05 499.87,1033.05 114.25,0 218.98,-114.26 176.14,-242.79zm-66.65 -2327.92c4.76,-114.26 14.29,-233.27 9.52,-347.53 90.46,-9.52 180.91,-14.28 271.36,-14.28 166.63,0 385.61,33.32 457.02,209.46 80.93,195.19 61.88,433.21 -47.61,609.36 -114.25,185.66 -309.44,314.2 -499.86,414.17 -28.57,14.29 -119.02,57.12 -218.99,104.73 0,-328.48 14.28,-652.19 28.56,-975.92zm2380.3 2270.8c152.34,-409.41 228.51,-837.86 361.8,-1252.03 47.61,-133.29 95.21,-276.12 195.19,-380.85 42.84,23.8 80.93,52.37 123.77,71.41 61.89,28.56 128.55,42.85 195.19,38.08 128.54,-4.76 228.51,-114.25 209.46,-242.78 -28.56,-204.7 -342.76,-376.09 -542.7,-376.09 -376.09,0 -599.84,433.21 -714.09,737.89 -14.29,-176.14 -19.04,-357.04 -61.88,-523.67 -28.57,-99.97 -95.21,-204.7 -214.23,-204.7 -71.41,0 -147.58,42.85 -195.19,114.26 -47.6,66.64 -71.4,147.58 -85.69,228.51 -23.8,185.66 -28.56,380.85 -28.56,571.27 4.76,261.84 23.8,933.08 128.54,1175.86 52.37,138.06 190.43,247.55 338,247.55 128.54,0 242.79,-80.93 290.4,-204.7zm2018.49 -2918.23c4.76,-66.65 -19.04,-295.16 -42.85,-352.29 -42.85,-85.7 -123.78,-128.54 -209.46,-128.54 -199.95,0 -247.55,185.66 -266.6,347.52 -14.28,99.97 -23.8,209.47 14.29,299.92 4.76,19.04 19.04,38.09 23.8,57.12 42.84,85.7 128.54,133.3 214.22,133.3 180.9,0 266.6,-199.95 266.6,-357.04zm-4.77 2799.22c0,-90.45 -19.03,-176.13 -38.08,-266.59 -52.37,-266.59 -61.89,-547.46 -52.37,-818.82 4.76,-71.41 28.56,-457.02 23.8,-523.67 0,-152.34 -76.17,-299.92 -247.55,-299.92 -52.37,0 -104.73,14.29 -152.34,52.38 -14.28,14.28 -33.32,23.79 -47.61,38.08 -52.37,52.37 -85.69,128.54 -109.49,195.19 -23.8,85.69 -42.85,176.14 -52.37,266.59 -38.09,309.44 -47.61,628.4 -9.53,942.6 33.33,242.79 90.46,699.81 423.7,699.81 161.86,0 252.31,-128.54 261.83,-285.64zm1018.78 457.02c138.05,-52.37 228.51,-204.7 285.63,-338 38.08,-80.93 214.22,-542.7 242.78,-628.4 57.13,-157.1 109.5,-318.95 166.63,-480.81 4.76,157.1 -4.76,314.2 9.52,471.29 4.76,33.32 23.8,61.89 28.56,95.21 9.53,71.41 38.09,138.05 61.89,199.95 47.61,104.73 147.58,161.86 242.78,161.86 80.93,0 157.1,-38.08 204.7,-119.02 61.89,-99.97 218.99,-628.39 252.31,-742.65 47.61,-138.05 95.21,-280.87 157.1,-414.17 19.04,-42.85 80.94,-166.63 123.78,-185.66 9.53,-4.77 19.04,9.52 28.56,14.28 42.85,61.89 47.61,142.82 57.13,214.23 9.52,90.45 14.28,552.22 9.52,642.68 -4.76,185.66 -23.8,376.09 -9.52,561.75 14.28,147.58 109.49,318.95 276.11,318.95 195.19,0 271.36,-233.27 290.4,-390.36 23.8,-199.95 33.32,-404.65 38.08,-609.36 4.77,-223.75 4.77,-447.49 -47.6,-666.48 -61.89,-290.39 -266.6,-585.55 -590.32,-585.55 -271.35,0 -461.78,280.87 -566.51,499.87 -23.8,-223.75 -119.02,-485.58 -385.61,-485.58 -95.21,0 -190.43,42.84 -257.07,119.01 -23.8,33.33 -52.37,66.65 -66.65,104.73l0 4.77c-128.54,171.37 -214.22,371.32 -295.15,571.27 -109.5,266.59 -204.7,537.95 -304.68,809.3 -47.61,-338.01 -9.53,-680.77 19.03,-1023.52 9.53,-104.74 28.57,-209.47 19.04,-314.21 0,-142.81 -95.21,-276.12 -247.55,-276.12 -371.32,0 -418.93,871.2 -423.69,1128.27 -9.53,247.54 0,495.1 57.12,737.89 52.37,242.78 161.86,537.95 428.45,618.87 61.88,14.29 133.29,9.52 195.19,-14.29l0 0zm4579.68 -409.41c133.29,-109.49 42.85,-309.44 -104.73,-309.44 -23.8,0 -47.61,4.76 -71.41,14.29 -166.62,66.64 -338,142.81 -518.9,152.34 -142.82,9.52 -309.44,-42.85 -404.65,-147.58 -99.97,-109.49 -133.29,-271.36 -133.29,-418.94 119.01,14.29 247.55,0 361.8,-38.08 195.19,-71.41 371.33,-214.22 480.82,-385.61 76.17,-119.02 119.02,-261.83 114.25,-399.89 0,-347.53 -347.52,-556.99 -661.72,-556.99 -428.44,0 -676,347.53 -799.77,718.85 -90.46,276.12 -133.29,576.03 -95.21,861.67 52.37,509.38 447.5,904.52 971.16,904.52 347.53,0 604.6,-180.9 861.67,-395.13zm-847.38 -1485.3c-14.29,114.25 -195.19,261.83 -304.68,299.92 42.85,-138.06 123.78,-314.21 242.79,-314.21 19.03,0 38.08,4.77 61.88,14.29zm1851.87 -1361.52c4.76,-66.65 -19.04,-295.16 -42.85,-352.29 -42.85,-85.7 -123.78,-128.54 -209.46,-128.54 -199.95,0 -247.55,185.66 -266.6,347.52 -14.28,99.97 -23.8,209.47 14.29,299.92 4.76,19.04 19.04,38.09 23.8,57.12 42.84,85.7 128.54,133.3 214.22,133.3 180.9,0 266.6,-199.95 266.6,-357.04zm-4.77 2799.22c0,-90.45 -19.03,-176.13 -38.08,-266.59 -52.37,-266.59 -61.89,-547.46 -52.37,-818.82 4.76,-71.41 28.56,-457.02 23.8,-523.67 0,-152.34 -76.17,-299.92 -247.55,-299.92 -52.37,0 -104.73,14.29 -152.34,52.38 -14.28,14.28 -33.32,23.79 -47.61,38.08 -52.37,52.37 -85.69,128.54 -109.49,195.19 -23.8,85.69 -42.85,176.14 -52.37,266.59 -38.09,309.44 -47.61,628.4 -9.53,942.6 33.33,242.79 90.46,699.81 423.7,699.81 161.86,0 252.31,-128.54 261.83,-285.64zm1099.7 119.02c152.34,-409.41 228.51,-837.86 361.8,-1252.03 47.61,-133.29 95.21,-276.12 195.19,-380.85 42.84,23.8 80.93,52.37 123.77,71.41 61.89,28.56 128.55,42.85 195.19,38.08 128.54,-4.76 228.51,-114.25 209.46,-242.78 -28.56,-204.7 -342.76,-376.09 -542.7,-376.09 -376.09,0 -599.84,433.21 -714.09,737.89 -14.29,-176.14 -19.04,-357.04 -61.88,-523.67 -28.57,-99.97 -95.21,-204.7 -214.23,-204.7 -71.41,0 -147.58,42.85 -195.19,114.26 -47.6,66.64 -71.4,147.58 -85.69,228.51 -23.8,185.66 -28.56,380.85 -28.56,571.27 4.76,261.84 23.8,933.08 128.54,1175.86 52.37,138.06 190.43,247.55 338,247.55 128.54,0 242.79,-80.93 290.4,-204.7zm2903.95 -185.66c180.9,-271.36 271.36,-595.08 257.07,-918.79 -19.03,-390.37 -266.59,-856.91 -656.95,-985.44 -57.13,-19.04 -114.26,-33.32 -171.38,-33.32 -57.12,-28.56 -119.02,-38.09 -180.9,-38.09 -314.21,0 -547.47,238.04 -690.28,495.11 -152.34,266.59 -233.27,585.55 -209.47,885.46 23.8,376.09 238.04,718.86 566.52,909.28 119.01,76.17 261.83,114.26 399.88,114.26 285.64,0 528.43,-204.7 685.53,-428.45zm-775.97 -138.06c-147.58,-99.96 -247.55,-290.39 -266.6,-471.29 -14.28,-171.38 23.8,-352.29 95.21,-509.38 66.65,-142.82 152.34,-280.87 280.87,-371.33 23.8,19.04 61.89,28.56 95.21,23.8 9.52,0 28.56,19.04 38.08,19.04 133.3,76.17 223.75,223.75 276.12,371.33 52.37,157.1 42.85,342.76 -4.76,504.61 -38.08,147.58 -209.46,490.35 -385.61,490.35 -47.61,0 -90.46,-28.56 -128.54,-57.13zm3332.41 518.91c42.85,-114.26 80.93,-352.29 123.78,-637.92 161.86,23.8 328.48,38.08 490.34,38.08 28.56,0 171.38,-4.76 199.95,-9.52 14.28,-4.76 28.56,-4.76 42.85,-9.52 0,199.94 119.01,709.32 385.61,709.32 85.69,0 171.37,-57.12 195.18,-152.34 42.85,-176.14 38.09,-366.56 19.04,-552.22 -71.41,-628.4 -14.28,-1271.08 -142.81,-1894.72 -66.65,-352.29 -276.12,-747.41 -685.53,-747.41 -157.11,0 -309.45,66.65 -423.7,199.95 -223.75,261.83 -399.89,1194.91 -537.95,1980.41 -57.12,0 -114.26,-4.77 -166.63,-19.04 -195.18,-61.89 -295.15,228.51 -99.97,299.92 23.8,9.52 119.02,33.32 209.47,57.12 -57.13,323.72 -104.74,595.07 -147.58,737.89 -38.09,123.78 76.17,185.66 204.7,185.66 133.29,0 290.39,-61.88 333.24,-185.66zm814.06 -1080.66c-38.09,-4.76 -223.75,-14.28 -257.07,-14.28 -123.78,-4.76 -242.79,0 -366.57,4.76 90.46,-628.4 195.19,-1313.93 328.48,-1518.63 38.09,-61.88 85.7,-199.95 128.54,-199.95 9.53,0 14.29,4.77 23.8,14.29 171.38,242.79 166.63,1094.94 171.38,1718.58l-28.56 -4.77zm1737.61 1090.18c66.65,-128.54 90.46,-276.12 128.54,-414.17 133.3,-433.21 347.53,-1047.33 628.4,-1404.37 85.7,133.29 76.17,309.44 66.65,471.29 -14.29,247.55 -47.61,499.87 -42.85,752.18 9.52,185.66 38.09,471.29 290.39,471.29 61.89,0 123.78,-23.8 171.38,-80.93 99.97,-114.25 119.02,-609.36 133.29,-761.69 19.04,-190.42 38.09,-380.85 28.57,-571.27 -19.04,-285.63 -95.21,-504.62 -323.72,-690.28 -71.41,-61.89 -176.14,-99.97 -271.36,-99.97 -404.65,0 -795.02,909.27 -928.31,1242.52 -4.76,-147.58 -4.76,-295.16 4.76,-442.74 0,-61.88 19.04,-414.17 19.04,-480.82 -9.53,-142.81 -52.37,-318.95 -233.27,-318.95 -338.01,0 -385.62,809.3 -395.13,1033.04 -14.29,342.77 9.52,695.05 85.69,1028.29 47.61,195.18 142.82,433.21 385.61,433.21 104.74,0 204.71,-71.41 252.31,-166.63zm2427.91 -3122.94c4.76,-66.65 -19.04,-295.16 -42.85,-352.29 -42.85,-85.7 -123.78,-128.54 -209.46,-128.54 -199.95,0 -247.55,185.66 -266.6,347.52 -14.28,99.97 -23.8,209.47 14.29,299.92 4.76,19.04 19.04,38.09 23.8,57.12 42.84,85.7 128.54,133.3 214.22,133.3 180.9,0 266.6,-199.95 266.6,-357.04zm-4.77 2799.22c0,-90.45 -19.03,-176.13 -38.08,-266.59 -52.37,-266.59 -61.89,-547.46 -52.37,-818.82 4.76,-71.41 28.56,-457.02 23.8,-523.67 0,-152.34 -76.17,-299.92 -247.55,-299.92 -52.37,0 -104.73,14.29 -152.34,52.38 -14.28,14.28 -33.32,23.79 -47.61,38.08 -52.37,52.37 -85.69,128.54 -109.49,195.19 -23.8,85.69 -42.85,176.14 -52.37,266.59 -38.09,309.44 -47.61,628.4 -9.53,942.6 33.33,242.79 90.46,699.81 423.7,699.81 161.86,0 252.31,-128.54 261.83,-285.64zm1066.37 323.72c66.65,-128.54 90.46,-276.12 128.54,-414.17 133.3,-433.21 347.53,-1047.33 628.4,-1404.37 85.7,133.29 76.17,309.44 66.65,471.29 -14.29,247.55 -47.61,499.87 -42.85,752.18 9.52,185.66 38.09,471.29 290.39,471.29 61.89,0 123.78,-23.8 171.38,-80.93 99.97,-114.25 119.02,-609.36 133.29,-761.69 19.04,-190.42 38.09,-380.85 28.57,-571.27 -19.04,-285.63 -95.21,-504.62 -323.72,-690.28 -71.41,-61.89 -176.14,-99.97 -271.36,-99.97 -404.65,0 -795.02,909.27 -928.31,1242.52 -4.76,-147.58 -4.76,-295.16 4.76,-442.74 0,-61.88 19.04,-414.17 19.04,-480.82 -9.53,-142.81 -52.37,-318.95 -233.27,-318.95 -338.01,0 -385.62,809.3 -395.13,1033.04 -14.29,342.77 9.52,695.05 85.69,1028.29 47.61,195.18 142.82,433.21 385.61,433.21 104.74,0 204.71,-71.41 252.31,-166.63zm2680.22 -166.62c38.08,-90.46 66.64,-185.67 99.96,-276.12 99.97,-314.21 185.67,-633.16 304.68,-942.6 61.89,-161.87 128.54,-328.48 233.28,-466.54 23.79,185.67 -23.8,1194.91 -28.57,1380.58 0,195.18 47.61,442.73 290.4,442.73 119.02,0 228.51,-85.69 271.36,-214.22 66.64,-185.67 76.16,-1009.25 76.16,-1209.19 -4.76,-195.19 -9.52,-390.36 -52.37,-580.79 -47.6,-218.98 -214.22,-428.44 -423.69,-428.44 -333.24,0 -576.03,404.64 -699.81,666.48 -138.05,304.68 -238.03,628.39 -352.29,942.6 -52.37,-504.62 -23.79,-1018.77 19.04,-1528.15 4.76,-95.21 52.37,-595.08 42.85,-690.28 -9.52,-147.58 -71.41,-309.45 -242.79,-309.45 -57.12,0 -114.25,19.04 -157.1,66.65 -180.9,176.14 -261.83,918.79 -280.87,1171.1 -28.56,357.04 -38.08,718.85 -19.04,1075.89 14.29,347.53 85.7,1199.67 566.52,1199.67 180.9,0 290.39,-147.57 352.29,-299.91zm3184.82 -223.75c180.9,-271.36 271.36,-595.08 257.07,-918.79 -19.03,-390.37 -266.59,-856.91 -656.95,-985.44 -57.13,-19.04 -114.26,-33.32 -171.38,-33.32 -57.12,-28.56 -119.02,-38.09 -180.9,-38.09 -314.21,0 -547.47,238.04 -690.28,495.11 -152.34,266.59 -233.27,585.55 -209.47,885.46 23.8,376.09 238.04,718.86 566.52,909.28 119.01,76.17 261.83,114.26 399.88,114.26 285.64,0 528.43,-204.7 685.53,-428.45zm-775.97 -138.06c-147.58,-99.96 -247.55,-290.39 -266.6,-471.29 -14.28,-171.38 23.8,-352.29 95.21,-509.38 66.65,-142.82 152.34,-280.87 280.87,-371.33 23.8,19.04 61.89,28.56 95.21,23.8 9.52,0 28.56,19.04 38.08,19.04 133.3,76.17 223.75,223.75 276.12,371.33 52.37,157.1 42.85,342.76 -4.76,504.61 -38.08,147.58 -209.46,490.35 -385.61,490.35 -47.61,0 -90.46,-28.56 -128.54,-57.13z"/>
 </g>
</svg>
